<?xml version="1.0" encoding="UTF-8" standalone="no"?><svg width="42" height="42" viewBox="0 0 42 42" fill="none" xmlns="http://www.w3.org/2000/svg">
<path d="M10.2311 14.0986C10.2311 14.0986 10.4256 11.8015 7.69412 11.0969C5.48775 10.5283 5.16283 9.62158 5.16283 9.62158C5.16283 9.62158 4.99282 12.0641 8.58007 13.0917C9.95717 13.4865 10.2311 14.0986 10.2311 14.0986Z" fill="#080D1B"/>
<path d="M11.8236 17.7368C8.57261 13.4884 3 15.1507 3 15.1507C3 15.1507 6.86305 15.1507 8.79174 18.9174C10.7204 22.6841 14.5835 22.6841 14.5835 22.6841C12.6132 20.9897 14.149 17.6896 11.0888 16.1689C11.0888 16.1689 11.6593 16.8093 11.8236 17.7349V17.7368Z" fill="#080D1B"/>
<path d="M26.7167 18.8305H22.3946V18.7927C22.3946 18.7927 21.1611 10.549 15.2088 5.84156C14.5004 5.28241 13.18 4.65336 12.8626 4.55514C7.83025 3.00614 7.48834 2.4791 6.47205 1C6.47205 1 6.60617 3.65974 9.9044 4.79693C13.2007 5.93601 14.6591 7.31877 13.6314 9.00567C12.9438 10.1372 10.2236 10.5754 9.40569 7.64368C9.40569 7.64368 9.50203 12.2019 13.3934 11.7296C14.9292 11.5426 16.6822 12.2378 16.2817 13.8227C15.9096 15.298 12.7965 14.7011 12.0182 14.2987C13.5785 15.5341 15.8227 15.0675 15.6319 24.6109V29.9152C15.6319 36.0375 20.5944 41 26.7167 41C32.839 41 37.8014 36.0375 37.8014 29.9152C37.8014 23.7929 32.839 18.8305 26.7167 18.8305ZM26.7167 34.2373C24.329 34.2373 22.3946 32.303 22.3946 29.9152C22.3946 27.5275 24.329 25.595 26.7167 25.595C29.1044 25.595 31.0369 27.5294 31.0369 29.9152C31.0369 32.3011 29.1025 34.2373 26.7167 34.2373Z" fill="#080D1B"/>
</svg>
