<?xml version="1.0" encoding="UTF-8" standalone="no"?><svg width="56" height="24" viewBox="0 0 56 24" fill="none" xmlns="http://www.w3.org/2000/svg">
<path d="M12.192 0.599998H18.112V23H12.192V21.56C11.168 22.8187 9.73867 23.448 7.904 23.448C5.74933 23.448 3.98933 22.648 2.624 21.048C1.25867 19.448 0.576 17.432 0.576 15C0.576 12.568 1.25867 10.552 2.624 8.952C3.98933 7.352 5.74933 6.552 7.904 6.552C9.73867 6.552 11.168 7.18133 12.192 8.44V0.599998ZM7.264 17.144C7.79733 17.72 8.49067 18.008 9.344 18.008C10.1973 18.008 10.88 17.72 11.392 17.144C11.9253 16.568 12.192 15.8533 12.192 15C12.192 14.1467 11.9253 13.432 11.392 12.856C10.88 12.28 10.1973 11.992 9.344 11.992C8.49067 11.992 7.79733 12.28 7.264 12.856C6.752 13.432 6.496 14.1467 6.496 15C6.496 15.8533 6.752 16.568 7.264 17.144ZM39.5663 6.552C41.4223 6.552 42.8729 7.13867 43.9183 8.312C44.9636 9.464 45.4863 11.1173 45.4863 13.272V23H39.5663V14.072C39.5663 12.856 39.0223 12.248 37.9343 12.248C36.6756 12.248 36.0463 13.0373 36.0463 14.616V23H30.1263V14.072C30.1263 12.856 29.5823 12.248 28.4943 12.248C27.2356 12.248 26.6063 13.0373 26.6063 14.616V23H20.6863V7H26.6063V8.504C27.6516 7.20267 29.1023 6.552 30.9583 6.552C32.7929 6.552 34.1263 7.21333 34.9583 8.536C36.1103 7.21333 37.6463 6.552 39.5663 6.552ZM53.9858 22.424C53.2818 23.128 52.4178 23.48 51.3938 23.48C50.3698 23.48 49.4951 23.128 48.7698 22.424C48.0658 21.6987 47.7138 20.824 47.7138 19.8C47.7138 18.776 48.0658 17.912 48.7698 17.208C49.4951 16.4827 50.3698 16.12 51.3938 16.12C52.4178 16.12 53.2818 16.4827 53.9858 17.208C54.7111 17.912 55.0738 18.776 55.0738 19.8C55.0738 20.824 54.7111 21.6987 53.9858 22.424Z" fill="white"/>
</svg>
