<svg width="483" height="417" viewBox="0 0 483 417" fill="none" xmlns="http://www.w3.org/2000/svg">
<path fill-rule="evenodd" clip-rule="evenodd" d="M216.061 200L188.526 178.709L216.061 200L188.526 178.709L166.242 162.512L203.594 102.922L197.505 99.8892L119 93.8519L188.285 84.8151L153.725 48.5022L162.005 19.3525L185.607 -9.06544e-06L216.061 78.2967L243.904 8.04782L264.639 26.9031L277.694 49.0142L393 36.2857L263.908 93.8519L343.358 135.267L251.754 119.818L267.853 165.23L235.916 155.039L216.061 200Z" fill="#080D1B"/>
<path fill-rule="evenodd" clip-rule="evenodd" d="M82.8889 304.504V304.504L83.0003 304.86L83.3323 305.221L83.879 305.596L84.6295 305.991L85.5666 306.41L86.6657 306.858L87.8925 307.337L89.2019 307.848L90.5374 308.389L91.8305 308.953L93.0036 309.531L93.9735 310.109L94.6577 310.67L94.9821 311.196L94.8895 311.667L94.3474 312.065L93.353 312.376L91.9348 312.591L90.1501 312.708L88.0782 312.731L85.8121 312.671L83.4479 312.544L81.0772 312.367L78.7803 312.16L76.6223 311.942L74.6532 311.729L72.9081 311.537L71.4109 311.381L70.1769 311.273L69.2175 311.223L68.5438 311.246L68.1707 311.356L68.1212 311.569L68.4322 311.91L69.1608 312.412L70.3952 313.124L72.2702 314.113L74.9926 315.487L78.8841 317.407L76.7437 316.87L73.2457 315.696L70.7839 314.904L69.0794 314.403L67.9508 314.134L67.2784 314.06L66.9826 314.159L67.0103 314.417L67.3258 314.828L67.9046 315.39L68.7283 316.103L69.781 316.969L71.0451 317.987L72.4981 319.153L74.1094 320.457L75.838 321.881L77.6308 323.397L79.4232 324.969L81.1408 326.548L82.7049 328.079L84.0381 329.504L85.0726 330.768L85.7578 331.82L86.0658 332.627L85.9947 333.169L85.5678 333.447L84.8303 333.48L83.8424 333.3L82.6731 332.951L81.3922 332.48L80.0657 331.937L78.7513 331.369L77.4966 330.817L76.3386 330.316L75.3046 329.896L74.4131 329.58L73.6755 329.386L73.0978 329.329L72.6814 329.419L72.4247 329.663L72.3229 330.067L72.3688 330.632L72.5519 331.357L72.8587 332.236L73.2713 333.26L73.7666 334.409L74.3161 335.657L74.8845 336.968L75.4309 338.296L75.9091 339.583L76.2699 340.764L76.4648 341.769L76.4502 342.529L76.1922 342.982L75.6714 343.083L74.8857 342.805L73.8518 342.149L72.6037 341.141L71.1892 339.829L69.6642 338.281L68.0872 336.572L66.5135 334.783L64.9913 332.987L63.559 331.251L62.245 329.629L61.0678 328.162L60.0378 326.882L59.1597 325.812L58.434 324.969L57.8599 324.37L57.4369 324.033L57.1666 323.981L57.0549 324.249L57.1142 324.889L57.3665 325.978L57.8473 327.631L58.6133 330.024L59.7526 333.426L60.5827 336.266L58.61 332.262L57.2 329.46L56.1842 327.527L55.4539 326.247L54.9369 325.482L54.5842 325.14L54.3618 325.162L54.245 325.51L54.2158 326.161L54.2596 327.098L54.3639 328.311L54.5167 329.787L54.7058 331.514L54.9175 333.466L55.1362 335.611L55.3449 337.899L55.5248 340.267L55.6567 342.635L55.7223 344.913L55.7062 347.003L55.5972 348.814L55.3902 350.264L55.0868 351.294L54.6953 351.872L54.2295 352L53.7072 351.707L53.1478 351.049L52.5703 350.099L51.992 348.939L51.4264 347.652L50.8837 346.317L50.37 345.003L49.8881 343.768L49.4378 342.657L49.0167 341.706L48.6206 340.94L48.2443 340.377L47.8817 340.027L47.5264 339.898L47.1716 339.992L46.8107 340.306L46.437 340.836L46.0444 341.571L45.6276 342.494L45.1822 343.582L44.7054 344.8L44.1966 346.105L43.6582 347.441L43.0957 348.74L42.5186 349.926L41.9399 350.915L41.3764 351.625L40.8468 351.98L40.3708 351.923L39.9664 351.417L39.6483 350.458L39.4256 349.071L39.3012 347.313L39.2709 345.261L39.3245 343.006L39.447 340.646L39.6205 338.273L39.8258 335.967L40.0442 333.796L40.2581 331.81L40.4517 330.046L40.6112 328.528L40.724 327.273L40.7782 326.291L40.7615 325.594L40.6598 325.197L40.4556 325.12L40.1257 325.401L39.6377 326.093L38.9455 327.283L37.9813 329.101L36.6434 331.746L34.775 335.529L35.0197 334.087L36.2296 330.49L37.0481 327.957L37.5699 326.2L37.8557 325.03L37.944 324.325L37.8585 324.001L37.6129 324.005L37.214 324.298L36.664 324.857L35.9626 325.662L35.1087 326.697L34.1028 327.945L32.9485 329.384L31.6552 330.984L30.2402 332.705L28.73 334.495L27.1614 336.29L25.5814 338.017L24.0442 339.596L22.6083 340.951L21.3302 342.011L20.2595 342.726L19.4327 343.064L18.8693 343.023L18.5704 342.623L18.519 341.908L18.6832 340.937L19.0208 339.78L19.4836 338.505L20.0223 337.18L20.5902 335.863L21.1451 334.602L21.6512 333.435L22.0786 332.39L22.4036 331.487L22.6074 330.736L22.6759 330.146L22.5982 329.717L22.3665 329.447L21.9758 329.333L21.4238 329.368L20.7114 329.54L19.8437 329.838L18.8314 330.243L17.6916 330.733L16.4501 331.279L15.1423 331.848L13.8141 332.397L12.5217 332.883L11.3299 333.255L10.3085 333.465L9.5267 333.468L9.04686 333.23L8.91688 332.731L9.16395 331.966L9.7903 330.95L10.7721 329.718L12.0619 328.314L13.5942 326.796L15.2927 325.221L17.0783 323.645L18.8757 322.117L20.6184 320.676L22.2514 319.352L23.7319 318.163L25.0278 317.121L26.1154 316.231L26.9767 315.493L27.5956 314.907L27.9544 314.472L28.03 314.189L27.7888 314.065L27.1809 314.11L26.1317 314.345L24.5291 314.806L22.2035 315.547L18.8948 316.652L15.3542 317.778L19.4728 315.751L22.3561 314.303L24.3499 313.26L25.6758 312.51L26.4781 311.978L26.851 311.614L26.8561 311.382L26.5327 311.258L25.9057 311.222L24.991 311.26L23.8001 311.36L22.3439 311.51L20.6369 311.696L18.7015 311.907L16.5707 312.126L14.2919 312.336L11.9279 312.519L9.55683 312.655L7.26863 312.727L5.15945 312.718L3.32323 312.616L1.84215 312.417L0.777506 312.121L0.162716 311.736L0 311.276L0.261253 310.757L0.892763 310.2L1.82258 309.623L2.96898 309.044L4.2484 308.477L5.58193 307.932L6.89966 307.416L8.14293 306.932L9.26486 306.479L10.2297 306.056L11.0112 305.658L11.5912 305.28L11.958 304.917L12.1047 304.561L12.0288 304.206L11.7316 303.846L11.2185 303.474L10.4995 303.083L9.59066 302.668L8.51539 302.225L7.30623 301.751L6.00642 301.244L4.67084 300.708L3.36598 300.147L2.16826 299.571L1.16034 298.992L0.425366 298.426L0.0393111 297.893L0.0625824 297.412L0.53211 297.001L1.45563 296.676L2.80949 296.445L4.54068 296.313L6.57275 296.276L8.81444 296.323L11.1693 296.441L13.5447 296.611L15.8582 296.815L18.042 297.033L20.0439 297.247L21.8265 297.443L23.3644 297.606L24.6412 297.723L25.645 297.782L26.365 297.772L26.7873 297.677L26.8903 297.482L26.64 297.163L25.9829 296.689L24.8366 296.015L23.0752 295.076L20.5056 293.772L16.8284 291.954L17.5739 291.908L21.2721 293.155L23.877 294L25.688 294.543L26.899 294.846L27.6379 294.949L27.9895 294.877L28.0106 294.644L27.739 294.257L27.2009 293.719L26.4151 293.03L25.3977 292.188L24.166 291.194L22.7413 290.051L21.1528 288.768L19.4396 287.362L17.653 285.858L15.8558 284.292L14.121 282.711L12.5271 281.168L11.1523 279.722L10.0663 278.43L9.32292 277.341L8.95403 276.493L8.96572 275.909L9.33845 275.589L10.0303 275.519L10.9827 275.668L12.1279 275.993L13.3956 276.448L14.7189 276.982L16.0387 277.549L17.3057 278.107L18.4811 278.618L19.5363 279.053L20.4515 279.386L21.2141 279.601L21.8175 279.68L22.2595 279.615L22.5414 279.395L22.6674 279.017L22.6445 278.478L22.4824 277.778L22.1942 276.923L21.7971 275.921L21.3132 274.791L20.7702 273.556L20.2021 272.252L19.6492 270.923L19.157 269.626L18.7742 268.423L18.5497 267.386L18.5284 266.582L18.7458 266.076L19.2242 265.917L19.9684 266.134L20.9646 266.731L22.1815 267.686L23.5731 268.953L25.0844 270.469L26.6569 272.157L28.2346 273.939L29.7679 275.738L31.2166 277.487L32.551 279.131L33.7509 280.625L34.8047 281.937L35.7072 283.042L36.4571 283.922L37.0552 284.56L37.5023 284.941L37.7972 285.04L37.9348 284.826L37.9039 284.249L37.6843 283.239L37.243 281.685L36.5274 279.425L35.4553 276.207L34.0317 271.963L36.1154 276.2L37.6018 279.167L38.6719 281.223L39.4421 282.596L39.9893 283.436L40.3655 283.84L40.6069 283.873L40.7391 283.575L40.7812 282.971L40.7482 282.079L40.6528 280.91L40.5068 279.474L40.3226 277.786L40.1136 275.868L39.8949 273.751L39.6834 271.481L39.4976 269.121L39.3568 266.748L39.2795 264.449L39.2817 262.322L39.3754 260.461L39.5667 258.949L39.8551 257.849L40.2334 257.198L40.6885 257L41.2031 257.229L41.7579 257.834L42.3337 258.743L42.9129 259.875L43.4813 261.147L44.0282 262.479L44.5467 263.8L45.0338 265.051L45.489 266.185L45.9145 267.163L46.3143 267.96L46.6933 268.557L47.0576 268.941L47.4137 269.105L47.7681 269.047L48.1276 268.767L48.4989 268.271L48.888 267.568L49.3007 266.673L49.7413 265.61L50.213 264.41L50.7167 263.116L51.2507 261.78L51.8099 260.47L52.3855 259.261L52.9649 258.235L53.5321 257.475L54.0684 257.059L54.5542 257.048L54.9711 257.481L55.3038 258.369L55.542 259.69L55.6819 261.394L55.7267 263.406L55.6856 265.634L55.5729 267.984L55.4062 270.361L55.2047 272.682L54.9872 274.878L54.7715 276.897L54.5737 278.698L54.4079 280.256L54.2868 281.554L54.2224 282.58L54.227 283.323L54.3141 283.77L54.5006 283.899L54.8086 283.679L55.2688 283.057L55.9246 281.953L56.8397 280.247L58.1094 277.75L59.8796 274.176L60.2145 274.224L58.9303 278.027L58.0569 280.707L57.4926 282.573L57.1723 283.826L57.0544 284.599L57.1133 284.979L57.334 285.025L57.7088 284.776L58.2347 284.258L58.912 283.491L59.7415 282.492L60.7234 281.276L61.8545 279.866L63.1266 278.289L64.5237 276.584L66.021 274.801L67.5831 273.002L69.1648 271.259L70.7127 269.651L72.1687 268.256L73.4754 267.145L74.582 266.372L75.4495 265.973L76.0553 265.955L76.3957 266.3L76.4847 266.969L76.3522 267.903L76.0391 269.035L75.593 270.296L75.0631 271.617L74.4969 272.939L73.9373 274.212L73.4213 275.396L72.9796 276.462L72.637 277.389L72.4128 278.164L72.3219 278.78L72.3758 279.235L72.5825 279.529L72.9476 279.668L73.474 279.656L74.1611 279.505L75.0045 279.226L75.9948 278.837L77.1157 278.359L78.3432 277.819L79.6432 277.252L80.9717 276.696L82.2739 276.197L83.4863 275.804L84.5396 275.565L85.364 275.526L85.8956 275.724L86.0837 276.181L85.8975 276.904L85.3306 277.881L84.4028 279.082L83.1581 280.462L81.6595 281.966L79.9821 283.536L78.2052 285.115L76.4049 286.654L74.6495 288.11L72.9959 289.455L71.4887 290.666L70.1617 291.732L69.0396 292.646L68.1412 293.408L67.4826 294.019L67.0809 294.478L66.9583 294.785L67.1463 294.935L67.6915 294.919L68.6641 294.715L70.1689 294.293L72.3648 293.602L75.4945 292.562L79.9363 291.049L76.0856 292.98L73.0329 294.506L70.9148 295.605L69.4938 296.395L68.6154 296.958L68.1789 297.347L68.1184 297.598L68.3915 297.738L68.9713 297.787L69.841 297.759L70.9886 297.668L72.4035 297.526L74.0717 297.344L75.9727 297.137L78.0751 296.918L80.3342 296.705L82.6894 296.517L85.0651 296.372L87.3729 296.289L89.517 296.284L91.4026 296.37L92.945 296.554L94.079 296.834L94.7664 297.206L95 297.656L94.8033 298.166L94.2263 298.719L93.3386 299.293L92.2211 299.873L90.9574 300.443L89.6275 300.992L88.3031 301.513L87.0445 302.002L85.9006 302.46L84.9088 302.888L84.0966 303.289L83.4836 303.67L83.0823 304.035L82.9002 304.392L82.8889 304.504Z" fill="#080D1B"/>
<path fill-rule="evenodd" clip-rule="evenodd" d="M303 349.938V349.938L303.853 348.587L304.706 347.246L305.559 345.918L306.412 344.604L307.265 343.303L308.118 342.018L308.972 340.749L309.825 339.498L310.678 338.264L311.531 337.049L312.384 335.854L313.237 334.68L314.09 333.528L314.943 332.397L315.796 331.29L316.649 330.207L317.502 329.149L318.355 328.117L319.209 327.11L320.062 326.131L320.915 325.18L321.768 324.257L322.621 323.364L323.474 322.5L324.327 321.667L325.18 320.864L326.033 320.094L326.886 319.355L327.739 318.65L328.592 317.977L329.445 317.339L330.299 316.734L331.152 316.165L332.005 315.63L332.858 315.131L333.711 314.668L334.564 314.241L335.417 313.85L336.27 313.496L337.123 313.179L337.976 312.9L338.829 312.658L339.682 312.453L340.536 312.287L341.389 312.158L342.242 312.067L343.095 312.015L343.948 312L344.801 312.024L345.654 312.085L346.507 312.185L347.36 312.323L348.213 312.499L349.066 312.712L349.919 312.963L350.773 313.252L351.626 313.577L352.479 313.94L353.332 314.339L354.185 314.775L355.038 315.247L355.891 315.755L356.744 316.298L357.597 316.876L358.45 317.488L359.303 318.135L360.156 318.815L361.009 319.529L361.863 320.275L362.716 321.053L363.569 321.863L364.422 322.704L365.275 323.575L366.128 324.475L366.981 325.405L367.834 326.363L368.687 327.348L369.54 328.361L370.393 329.4L371.246 330.464L372.1 331.553L372.953 332.665L373.806 333.801L374.659 334.959L375.512 336.138L376.365 337.338L377.218 338.557L378.071 339.795L378.924 341.051L379.777 342.324L380.63 343.613L381.483 344.916L382.336 346.234L383.19 347.565L384.043 348.909L384.896 350.263L385.749 351.627L386.602 353.001L387.455 354.383L388.308 355.772L389.161 357.167L390.014 358.568L390.867 359.972L391.72 361.38L392.573 362.789L393.427 364.2L394.28 365.611L395.133 367.02L395.986 368.428L396.839 369.832L397.692 371.233L398.545 372.628L399.398 374.017L400.251 375.399L401.104 376.773L401.957 378.137L402.81 379.491L403.664 380.835L404.517 382.166L405.37 383.483L406.223 384.787L407.076 386.076L407.929 387.349L408.782 388.605L409.635 389.843L410.488 391.062L411.341 392.262L412.194 393.441L413.047 394.599L413.9 395.735L414.754 396.847L415.607 397.936L416.46 399L417.313 400.039L418.166 401.052L419.019 402.037L419.872 402.995L420.725 403.925L421.578 404.825L422.431 405.696L423.284 406.537L424.137 407.347L424.991 408.125L425.844 408.871L426.697 409.585L427.55 410.265L428.403 410.912L429.256 411.524L430.109 412.102L430.962 412.645L431.815 413.153L432.668 413.625L433.521 414.061L434.374 414.46L435.227 414.823L436.081 415.148L436.934 415.437L437.787 415.688L438.64 415.901L439.493 416.077L440.346 416.215L441.199 416.315L442.052 416.376L442.905 416.4L443.758 416.385L444.611 416.333L445.464 416.242L446.318 416.113L447.171 415.947L448.024 415.742L448.877 415.5L449.73 415.221L450.583 414.904L451.436 414.55L452.289 414.159L453.142 413.732L453.995 413.269L454.848 412.77L455.701 412.235L456.555 411.666L457.408 411.061L458.261 410.423L459.114 409.75L459.967 409.045L460.82 408.306L461.673 407.536L462.526 406.733L463.379 405.9L464.232 405.036L465.085 404.143L465.938 403.22L466.791 402.269L467.645 401.289L468.498 400.283L469.351 399.251L470.204 398.193L471.057 397.11L471.91 396.003L472.763 394.872L473.616 393.72L474.469 392.546L475.322 391.351L476.175 390.136L477.028 388.902L477.882 387.651L478.735 386.382L479.588 385.097L480.441 383.796L481.294 382.482L482.147 381.154L483 379.813" fill="#080D1B"/>
</svg>
