<svg width="135" height="40" viewBox="0 0 135 40" fill="none" xmlns="http://www.w3.org/2000/svg">
<path d="M129.997 39.999H5.0025C2.25255 39.999 0.00262451 37.7491 0.00262451 34.9991V4.99988C0.00262451 2.24993 2.25255 0 5.0025 0H129.997C132.747 0 134.997 2.24993 134.997 4.99988V34.9991C134.997 37.7491 132.747 39.999 129.997 39.999Z" fill="#100F0D"/>
<path d="M129.997 0H5.0025C2.25255 0 0.00262451 2.24993 0.00262451 4.99988V34.9991C0.00262451 37.7491 2.25255 39.999 5.0025 39.999H129.997C132.747 39.999 134.997 37.7491 134.997 34.9991V4.99988C134.997 2.24993 132.747 0 129.997 0ZM129.997 0.799575C132.313 0.799575 134.197 2.68395 134.197 4.99988V34.9991C134.197 37.3151 132.313 39.1994 129.997 39.1994H5.0025C2.68657 39.1994 0.803024 37.3151 0.803024 34.9991V4.99988C0.803024 2.68395 2.68657 0.799575 5.0025 0.799575H129.997Z" fill="#A2A2A1"/>
<path d="M106.935 29.9992H108.801V17.4975H106.935V29.9992ZM123.742 22.0012L121.603 27.421H121.539L119.319 22.0012H117.309L120.639 29.5762L118.74 33.7901H120.686L125.817 22.0016L123.742 22.0012ZM113.159 28.5792C112.549 28.5792 111.696 28.2733 111.696 27.5175C111.696 26.5526 112.758 26.1827 113.674 26.1827C114.494 26.1827 114.881 26.3593 115.379 26.6007C115.234 27.7588 114.237 28.5792 113.159 28.5792ZM113.385 21.7278C112.034 21.7278 110.635 22.3231 110.056 23.6419L111.712 24.3332C112.066 23.6419 112.725 23.4169 113.417 23.4169C114.382 23.4169 115.363 23.9954 115.379 25.025V25.1535C115.041 24.9605 114.317 24.6712 113.433 24.6712C111.647 24.6712 109.83 25.6519 109.83 27.4854C109.83 29.1581 111.294 30.2358 112.934 30.2358C114.188 30.2358 114.881 29.6729 115.314 29.0132H115.379V29.9788H117.181V25.1855C117.181 22.966 115.523 21.7278 113.385 21.7278ZM101.853 23.5231H99.1993V19.2381H101.853C103.248 19.2381 104.04 20.3928 104.04 21.3805C104.04 22.3493 103.248 23.5231 101.853 23.5231ZM101.805 17.4978H97.3342V29.9995H99.1994V25.2634H101.805C103.873 25.2634 105.906 23.7665 105.906 21.381C105.906 18.9959 103.873 17.4978 101.805 17.4978ZM77.425 28.5813C76.1359 28.5813 75.057 27.5016 75.057 26.02C75.057 24.5212 76.1359 23.4263 77.425 23.4263C78.6977 23.4263 79.6965 24.5213 79.6965 26.02C79.6965 27.5016 78.6977 28.5813 77.425 28.5813ZM79.5675 22.7011H79.503C79.0843 22.2018 78.2784 21.7507 77.264 21.7507C75.1371 21.7507 73.188 23.6197 73.188 26.02C73.188 28.404 75.1371 30.2566 77.264 30.2566C78.2784 30.2566 79.0843 29.8054 79.503 29.2903H79.5675V29.9019C79.5675 31.5297 78.6977 32.3991 77.2961 32.3991C76.1527 32.3991 75.4438 31.5777 75.1535 30.885L73.5267 31.5616C73.9935 32.6888 75.2337 34.0748 77.2962 34.0748C79.4875 34.0748 81.3401 32.7857 81.3401 29.6441V22.0083H79.5676L79.5675 22.7011ZM82.6292 29.9989H84.4971V17.4971H82.6292V29.9989ZM87.2522 25.8748C87.2041 24.2314 88.5255 23.3939 89.4756 23.3939C90.2169 23.3939 90.8446 23.7646 91.0548 24.2959L87.2522 25.8748ZM93.0516 24.4568C92.6973 23.5069 91.6181 21.7507 89.4111 21.7507C87.2197 21.7507 85.3994 23.4744 85.3994 26.0037C85.3994 28.388 87.2041 30.2567 89.6201 30.2567C91.5693 30.2567 92.6974 29.065 93.1649 28.372L91.7149 27.4052C91.2314 28.1142 90.5712 28.5814 89.6201 28.5814C88.6701 28.5814 87.9932 28.1463 87.5589 27.2924L93.245 24.9405L93.0516 24.4568ZM47.7449 23.0557V24.8599H52.0622C51.9334 25.8748 51.5951 26.6158 51.0794 27.1314C50.451 27.7595 49.4682 28.4524 47.7448 28.4524C45.0866 28.4524 43.0085 26.3099 43.0085 23.6518C43.0085 20.9936 45.0866 18.8508 47.7448 18.8508C49.1786 18.8508 50.2256 19.4148 50.9989 20.1397L52.2719 18.8668C51.1922 17.8359 49.7587 17.0465 47.7448 17.0465C44.1034 17.0465 41.0426 20.0108 41.0426 23.6518C41.0426 27.2923 44.1034 30.2567 47.7448 30.2567C49.7099 30.2567 51.1923 29.6122 52.352 28.4041C53.5442 27.2119 53.9149 25.5365 53.9149 24.1831C53.9149 23.7647 53.8824 23.378 53.818 23.0557H47.7449ZM58.8239 28.5813C57.5348 28.5813 56.4231 27.518 56.4231 26.0037C56.4231 24.4732 57.5348 23.4264 58.8239 23.4264C60.1124 23.4264 61.2241 24.4732 61.2241 26.0037C61.2241 27.518 60.1124 28.5813 58.8239 28.5813ZM58.8239 21.7507C56.4711 21.7507 54.5543 23.5388 54.5543 26.0037C54.5543 28.4524 56.4711 30.2567 58.8239 30.2567C61.1757 30.2567 63.0929 28.4524 63.0929 26.0037C63.0929 23.5388 61.1757 21.7507 58.8239 21.7507ZM68.1366 28.5813C66.8484 28.5813 65.7364 27.518 65.7364 26.0037C65.7364 24.4732 66.8485 23.4264 68.1366 23.4264C69.4257 23.4264 70.537 24.4732 70.537 26.0037C70.537 27.518 69.4257 28.5813 68.1366 28.5813ZM68.1366 21.7507C65.7848 21.7507 63.868 23.5388 63.868 26.0037C63.868 28.4524 65.7848 30.2567 68.1366 30.2567C70.4894 30.2567 72.4061 28.4524 72.4061 26.0037C72.4061 23.5388 70.4894 21.7507 68.1366 21.7507Z" fill="white"/>
<path d="M20.7165 19.4235L10.071 30.723C10.0714 30.7253 10.0722 30.7272 10.0726 30.7296C10.3991 31.9566 11.5198 32.8601 12.8498 32.8601C13.3815 32.8601 13.8807 32.7164 14.3088 32.464L14.3428 32.4441L26.3263 25.5291L20.7165 19.4235Z" fill="#EB3131"/>
<path d="M31.4872 17.4998L31.477 17.4928L26.3034 14.4935L20.4746 19.6802L26.3236 25.5285L31.47 22.5591C32.3722 22.072 32.9848 21.1208 32.9848 20.024C32.9848 18.935 32.3806 17.9885 31.4872 17.4998Z" fill="#F6B60B"/>
<path d="M10.0695 9.27673C10.0055 9.51273 9.97186 9.75992 9.97186 10.0166V29.9839C9.97186 30.2401 10.0051 30.4881 10.0699 30.7233L21.0829 19.7125L10.0695 9.27673Z" fill="#5778C5"/>
<path d="M20.7952 20.0002L26.3057 14.4914L14.3357 7.55137C13.9006 7.29078 13.3928 7.14038 12.8494 7.14038C11.5194 7.14038 10.3972 8.04548 10.0706 9.27391C10.0702 9.27511 10.0702 9.27593 10.0702 9.27698L20.7952 20.0002Z" fill="#3BAD49"/>
<path d="M47.3947 9.78075H44.4776V10.5026H46.6636C46.6042 11.0917 46.3698 11.5542 45.9745 11.8901C45.5792 12.2261 45.0745 12.3948 44.4776 12.3948C43.823 12.3948 43.2683 12.1667 42.8137 11.7136C42.3683 11.2512 42.1418 10.6792 42.1418 9.99022C42.1418 9.30124 42.3683 8.72932 42.8137 8.26687C43.2683 7.81378 43.823 7.58719 44.4776 7.58719C44.8136 7.58719 45.1339 7.64499 45.4276 7.77158C45.7214 7.89808 45.9573 8.07467 46.1417 8.30127L46.6964 7.74659C46.4448 7.4606 46.1261 7.2419 45.7307 7.08251C45.3354 6.92311 44.9229 6.84661 44.4776 6.84661C43.6042 6.84661 42.8636 7.1497 42.2589 7.75441C41.6542 8.3606 41.3511 9.10749 41.3511 9.99024C41.3511 10.873 41.6542 11.6215 42.2589 12.2262C42.8636 12.8308 43.6042 13.134 44.4776 13.134C45.3947 13.134 46.126 12.8402 46.6885 12.2433C47.1838 11.7465 47.4369 11.0747 47.4369 10.2341C47.4369 10.0919 47.4198 9.94015 47.3947 9.78075ZM48.5248 6.98085V12.9995H52.0387V12.2604H49.2982V10.3512H51.7701V9.62929H49.2982V7.72151H52.0387V6.98083L48.5248 6.98085ZM56.9661 7.72154V6.98085H52.8302V7.72154H54.5115V12.9995H55.2849V7.72154H56.9661ZM60.7105 6.98085H59.9371V12.9995H60.7105V6.98085ZM65.8154 7.72154V6.98085H61.6796V7.72154H63.3607V12.9995H64.1341V7.72154H65.8154ZM73.6199 7.76373C73.023 7.14966 72.2918 6.84656 71.4184 6.84656C70.5434 6.84656 69.8122 7.14965 69.2153 7.75436C68.6184 8.35125 68.3248 9.09963 68.3248 9.99018C68.3248 10.8807 68.6185 11.6292 69.2153 12.2262C69.8122 12.8307 70.5434 13.134 71.4184 13.134C72.2839 13.134 73.023 12.8308 73.6199 12.2262C74.2168 11.6293 74.5105 10.8808 74.5105 9.99018C74.5105 9.10743 74.2168 8.36051 73.6199 7.76373ZM69.77 8.26682C70.2153 7.81373 70.7622 7.58714 71.4184 7.58714C72.0731 7.58714 72.6199 7.81374 73.0574 8.26682C73.5027 8.71211 73.7214 9.29327 73.7214 9.99017C73.7214 10.6887 73.5027 11.2682 73.0574 11.7136C72.6199 12.1667 72.073 12.3948 71.4184 12.3948C70.7622 12.3948 70.2153 12.1667 69.77 11.7136C69.334 11.2589 69.1153 10.6886 69.1153 9.99017C69.1153 9.29328 69.334 8.72147 69.77 8.26682ZM76.348 9.25119L76.3152 8.09019H76.348L79.4073 12.9995H80.215V6.98079H79.4417V10.5026L79.4744 11.6636H79.4417L76.5167 6.98079H75.5746V12.9995H76.348V9.25119Z" fill="white" stroke="white" stroke-width="0.26666" stroke-miterlimit="10"/>
</svg>
