<svg width="42" height="42" viewBox="0 0 42 42" fill="none" xmlns="http://www.w3.org/2000/svg">
<path d="M32.5366 12.5C27.8719 12.5 24.0755 16.3156 24.0755 21.0011C24.0755 23.8756 25.5063 26.4142 27.6881 27.9537H14.3119C16.4914 26.4142 17.9245 23.8756 17.9245 21.0011C17.9245 16.3156 14.1259 12.5 9.46115 12.5C4.79644 12.5 1 16.3156 1 21.0011C1 25.6867 4.79644 29.5 9.46115 29.5H32.5388C37.2036 29.5 41 25.6845 41 21.0011C41 16.3178 37.2036 12.5 32.5366 12.5ZM2.5394 21.0011C2.5394 17.1677 5.64478 14.0485 9.46115 14.0485C13.2775 14.0485 16.3829 17.1677 16.3829 21.0011C16.3829 24.8345 13.2775 27.9537 9.46115 27.9537C5.64478 27.9537 2.5394 24.8345 2.5394 21.0011ZM32.5366 27.9537C28.718 27.9537 25.6149 24.8345 25.6149 21.0011C25.6149 17.1677 28.718 14.044 32.5366 14.044C36.3552 14.044 39.4584 17.1633 39.4584 21.0011C39.4584 24.839 36.353 27.9537 32.5366 27.9537Z" fill="white" stroke="white"/>
</svg>
