<svg width="947" height="129" viewBox="0 0 947 129" fill="none" xmlns="http://www.w3.org/2000/svg">
<path d="M41.85 127H0.025V115.275H13.5V12.375H0.025V0.649989H28.55V58.4C35.025 51.225 47.45 44.4 57.425 44.4C70.2 44.4 81.925 52.45 81.925 67.85V115.275H94.7V127H53.4V115.275H66.875V71.525C66.875 61.55 62.675 57 56.025 57C44.475 57 36.6 62.95 28.55 70.475V115.275H41.85V127ZM191.882 91.65H121.707C123.107 107.4 136.057 116.85 148.482 116.85C160.732 116.85 170.532 111.6 175.257 103.55H190.132C185.757 118.95 167.032 128.75 148.307 128.75C125.907 128.75 106.657 111.075 106.657 86.925C106.657 62.775 125.907 44.4 149.357 44.4C174.732 44.4 191.882 65.05 191.882 91.65ZM121.707 79.925H176.832C176.832 67.15 163.357 56.3 149.182 56.3C135.357 56.3 123.107 66.8 121.707 79.925ZM249.049 127H206.349V115.275H220.524V12.375H206.699V0.649989H235.574V115.275H249.049V127ZM307.325 127H264.625V115.275H278.8V12.375H264.975V0.649989H293.85V115.275H307.325V127ZM320.451 86.575C320.451 63.65 336.376 44.4 363.676 44.4C390.976 44.4 406.901 63.65 406.901 86.575C406.901 109.5 390.976 128.75 363.676 128.75C336.376 128.75 320.451 109.5 320.451 86.575ZM363.676 56.3C346.701 56.3 335.501 68.55 335.501 86.575C335.501 104.6 346.701 116.85 363.676 116.85C380.651 116.85 391.851 104.6 391.851 86.575C391.851 68.55 380.651 56.3 363.676 56.3ZM503.093 56.3C484.718 56.3 476.668 71.35 476.668 86.575C476.668 101.8 484.718 116.85 503.093 116.85C516.218 116.85 529.168 105.825 529.168 86.575C529.168 67.325 516.218 56.3 503.093 56.3ZM529.693 127V114.75H529.343C523.568 122.8 512.018 128.75 501.868 128.75C476.843 128.75 461.618 110.2 461.618 86.575C461.618 62.95 476.843 44.4 501.868 44.4C512.018 44.4 523.568 50.35 528.993 58.4H529.168V12.375H513.768V0.649989H544.218V115.275H556.818V127H529.693ZM653.65 91.65H583.475C584.875 107.4 597.825 116.85 610.25 116.85C622.5 116.85 632.3 111.6 637.025 103.55H651.9C647.525 118.95 628.8 128.75 610.075 128.75C587.675 128.75 568.425 111.075 568.425 86.925C568.425 62.775 587.675 44.4 611.125 44.4C636.5 44.4 653.65 65.05 653.65 91.65ZM583.475 79.925H638.6C638.6 67.15 625.125 56.3 610.95 56.3C597.125 56.3 584.875 66.8 583.475 79.925ZM695.066 46.15V57.525C700.666 51.225 711.516 44.4 720.616 44.4C730.591 44.4 738.641 50.175 743.016 58.925C752.641 49.475 760.341 44.4 773.116 44.4C789.566 44.4 796.216 59.45 796.216 73.45V115.275H807.591V127H768.916V115.275H781.166V71.875C781.166 62.425 777.141 57 767.166 57C759.466 57 749.316 65.05 745.641 70.65V115.275H757.191V127H718.691V115.275H730.591V71.875C730.591 62.425 726.566 57 716.591 57C708.891 57 698.741 65.05 695.066 70.65V115.275H707.316V127H667.241V115.275H680.016V57.875H667.241V46.15H695.066ZM821.184 86.575C821.184 63.65 837.109 44.4 864.409 44.4C891.709 44.4 907.634 63.65 907.634 86.575C907.634 109.5 891.709 128.75 864.409 128.75C837.109 128.75 821.184 109.5 821.184 86.575ZM864.409 56.3C847.434 56.3 836.234 68.55 836.234 86.575C836.234 104.6 847.434 116.85 864.409 116.85C881.384 116.85 892.584 104.6 892.584 86.575C892.584 68.55 881.384 56.3 864.409 56.3ZM934.875 105.65C941 105.65 946.075 110.725 946.075 116.85C946.075 123.15 941 127.875 934.875 127.875C928.75 127.875 923.85 123.15 923.85 116.85C923.85 110.725 928.75 105.65 934.875 105.65Z" fill="white"/>
</svg>
