<svg width="42" height="19" viewBox="0 0 42 19" fill="none" xmlns="http://www.w3.org/2000/svg">
<path d="M32.5366 1C27.8719 1 24.0755 4.79866 24.0755 9.46337C24.0755 12.3251 25.5063 14.8524 27.6881 16.3851H14.3119C16.4914 14.8524 17.9245 12.3251 17.9245 9.46337C17.9245 4.79866 14.1259 1 9.46115 1C4.79644 1 1 4.79866 1 9.46337C1 14.1281 4.79644 17.9245 9.46115 17.9245H32.5388C37.2036 17.9245 41 14.1259 41 9.46337C41 4.80088 37.2036 1 32.5366 1ZM2.5394 9.46337C2.5394 5.64699 5.64478 2.54161 9.46115 2.54161C13.2775 2.54161 16.3829 5.64699 16.3829 9.46337C16.3829 13.2797 13.2775 16.3851 9.46115 16.3851C5.64478 16.3851 2.5394 13.2797 2.5394 9.46337ZM32.5366 16.3851C28.718 16.3851 25.6149 13.2797 25.6149 9.46337C25.6149 5.64699 28.718 2.53718 32.5366 2.53718C36.3552 2.53718 39.4584 5.64256 39.4584 9.46337C39.4584 13.2842 36.353 16.3851 32.5366 16.3851Z" fill="white" stroke="white"/>
</svg>
