<?xml version="1.0" encoding="UTF-8" standalone="no"?><svg width="42" height="42" viewBox="0 0 42 42" fill="none" xmlns="http://www.w3.org/2000/svg">
<path d="M37.2895 21.0017C37.2895 30.0986 29.9948 37.4706 20.9995 37.4706C12.0041 37.4706 4.70319 30.0923 4.70319 21.0017C4.70319 11.911 11.9979 4.5327 20.9995 4.5327C30.0011 4.5327 37.2895 11.9047 37.2895 21.0017ZM37.7941 33.0638C44.3849 23.5702 42.1112 10.4756 32.7109 3.81501C23.3168 -2.85189 10.3595 -0.554044 3.76877 8.94582C-2.82201 18.4394 -0.548257 31.534 8.85201 38.1946C15.449 42.8721 24.1329 43.2687 31.1224 39.2145L32.6797 38.3079L33.3712 39.0319C35.5889 41.399 39.0213 42.1418 41.999 40.8891L36.7725 34.5432L37.8004 33.0575L37.7941 33.0638Z" fill="white"/>
</svg>
