<?xml version="1.0" encoding="UTF-8" standalone="no"?><svg width="42" height="42" viewBox="0 0 42 42" fill="none" xmlns="http://www.w3.org/2000/svg">
<path d="M19.5522 21.3192V14.1708L11.883 18.6354L9.1404 20.2272V20.034V15.96V13.2048L15.0078 9.7902L19.5522 7.1484V0L11.9376 4.431L3 9.6306V20.034V30.4332L9.1404 34.0074V27.3756L14.9532 23.9946L19.5522 21.3192Z" fill="white"/>
<path d="M29.7624 4.431L22.1478 0V7.1484L32.5554 13.2048V28.0224L29.3088 29.9124L33.6264 34.5492L38.7 31.5966V9.6306L29.7624 4.431Z" fill="white"/>
<path d="M20.8205 34.8515L11.7317 28.6523V35.8007L20.8205 41.9999L28.1621 37.7285L23.8445 33.0917L20.8205 34.8515Z" fill="white"/>
</svg>
