<svg width="42" height="42" viewBox="0 0 42 42" fill="none" xmlns="http://www.w3.org/2000/svg">
<path d="M34.4117 10.0395C34.7339 10.0395 35 9.77339 35 9.45123V7.58829C35 7.26613 34.7339 7 34.4117 7H7.58829C7.26613 7 7 7.26613 7 7.58829V34.4117C7 34.7339 7.26613 35 7.58829 35H34.4117C34.7339 35 35 34.7339 35 34.4117V16.8469C35 16.5248 34.7339 16.2586 34.4117 16.2586C34.0895 16.2586 33.8234 16.5248 33.8234 16.8469V21.5953H31.4702C31.1481 21.5953 30.8819 21.8614 30.8819 22.1836C30.8819 22.5058 31.1481 22.7719 31.4702 22.7719H33.8234V33.8234H16.8889V30.952C16.8889 30.6298 16.6228 30.3637 16.3006 30.3637C15.9785 30.3637 15.7123 30.6298 15.7123 30.952V33.8234H8.17659V8.17659H15.6983V25.3492C15.6983 25.6713 15.9645 25.9375 16.2866 25.9375C16.6088 25.9375 16.8749 25.6713 16.8749 25.3492V22.7719H24.7469C25.069 22.7719 25.3352 22.5058 25.3352 22.1836C25.3352 21.8614 25.069 21.5953 24.7469 21.5953H16.8889V8.17659H33.8234V9.45123C33.8234 9.78739 34.0895 10.0535 34.4117 10.0535V10.0395Z" fill="white" stroke="white" stroke-width="1.5" stroke-miterlimit="10"/>
</svg>
