<svg width="842" height="110" viewBox="0 0 842 110" fill="none" xmlns="http://www.w3.org/2000/svg">
<g clip-path="url(#clip0_365_543)">
<path d="M27.7908 59.6495C16.788 55.7938 3.17622 48.4227 3.17622 31.866C3.17622 11.9072 18.2626 -0.453621 35.6176 -1.31829e-05C45.1458 0.340193 55.3546 4.19586 63.9754 12.9278L51.9517 26.3093C45.9398 20.866 40.1548 18.7113 35.5041 19.0515C28.358 19.3917 23.5938 24.9484 23.5938 31.1856C23.5938 38.1031 28.2445 41.0515 36.8653 44L45.4861 46.835C56.3755 50.0103 70.1007 60.1031 70.1007 78.0206C70.1007 97.4124 54.4471 110.113 35.5041 109.773C23.8207 109.546 11.1164 104.557 -0.113281 93.3299L11.9104 79.1546C20.5312 87.8866 28.8117 91.1753 35.6176 90.9484C44.8055 90.9484 50.9308 84.7113 50.9308 77.9072C50.9308 69.5154 43.6712 65.0928 36.4116 62.7113L27.7908 59.5361V59.6495Z" fill="white"/>
<path d="M156.081 1.36084V19.8454H113.318V44.6804H154.72V63.165H113.318V90.1547H157.556V108.639H93.354V1.36084H156.081Z" fill="white"/>
<path d="M200.66 1.36084V89.8144H240.588V108.526H180.583V1.36084H200.66Z" fill="white"/>
<path d="M326.228 1.36084V19.8454H283.465V44.6804H324.867V63.165H283.465V90.1547H327.703V108.639H263.501V1.36084H326.228Z" fill="white"/>
<path d="M437.504 97.9794C428.089 105.464 416.179 109.887 403.135 109.887C372.848 109.887 347.667 85.6186 347.667 54.8866C347.667 24.1546 372.848 0 403.248 0C416.293 0 428.203 4.42268 437.618 12.134L423.893 25.8557C417.994 21.7732 410.735 19.5052 403.248 19.5052C383.511 19.5052 367.858 35.268 367.858 55C367.858 74.732 383.511 90.6082 403.248 90.6082C410.621 90.6082 417.881 88.2268 423.779 84.1443L437.504 97.9794Z" fill="white"/>
<path d="M527.909 1.36084V19.8454H500.458V108.639H480.495V19.9588H452.817V1.36084H527.909Z" fill="white"/>
<path d="M614.911 1.36084V19.8454H587.46V108.639H567.497V19.9588H539.819V1.36084H614.911Z" fill="white"/>
<path d="M641.794 1.36084H661.758V108.639H641.794V1.36084Z" fill="white"/>
<path d="M754.771 1.02063L744.789 15.0825L734.807 1.02063C709.058 5.67011 689.208 27.6701 689.208 55C689.208 82.3299 708.378 103.763 733.446 108.866L744.789 92.8763L756.019 108.866C780.974 103.763 800.144 81.8763 800.144 55.1134C800.144 28.3505 780.407 5.67011 754.771 1.02063ZM744.789 90.4949C725.052 90.4949 709.399 74.732 709.399 55C709.399 35.2681 725.052 19.5052 744.789 19.5052C764.526 19.5052 780.293 35.2681 780.293 55C780.293 74.732 764.526 90.4949 744.789 90.4949Z" fill="white"/>
<path d="M820.788 55C820.788 49.2165 825.552 44.4536 831.337 44.4536C837.122 44.4536 841.887 49.2165 841.887 55C841.887 60.7835 837.122 65.5464 831.337 65.5464C825.552 65.5464 820.788 60.8969 820.788 55Z" fill="white"/>
</g>
<defs>
<clipPath id="clip0_365_543">
<rect width="842" height="110" fill="white"/>
</clipPath>
</defs>
</svg>
