<?xml version="1.0" encoding="UTF-8" standalone="no"?><svg width="120" height="120" viewBox="0 0 120 120" fill="none" xmlns="http://www.w3.org/2000/svg">
<path fill-rule="evenodd" clip-rule="evenodd" d="M104.702 60.0057L104.842 60.4541L105.262 60.9111L105.952 61.3848L106.9 61.8829L108.084 62.4121L109.472 62.9779L111.022 63.5834L112.676 64.2292L114.363 64.9121L115.996 65.6246L117.478 66.3546L118.703 67.0848L119.568 67.7942L119.977 68.4587L119.86 69.0536L119.176 69.5564L117.92 69.949L116.128 70.2203L113.874 70.3678L111.257 70.397L108.394 70.3217L105.408 70.1609L102.413 69.9376L99.5119 69.6761L96.7861 69.3999L94.2988 69.1311L92.0945 68.8893L90.2032 68.6919L88.6445 68.5548L87.4326 68.4928L86.5817 68.5218L86.1104 68.6597L86.0479 68.9291L86.4406 69.3601L87.361 69.9947L88.9202 70.8929L91.2887 72.1431L94.7275 73.8781L99.6431 76.3031L96.9394 75.6254L92.5209 74.1421L89.4112 73.1418L87.2581 72.5087L85.8325 72.169L84.9832 72.0758L84.6096 72.2004L84.6446 72.5263L85.0432 73.0454L85.7742 73.7554L86.8147 74.6568L88.1445 75.7508L89.7412 77.0367L91.5765 78.5094L93.6119 80.1563L95.7953 81.9548L98.06 83.8703L100.324 85.8552L102.494 87.8495L104.469 89.7838L106.153 91.5845L107.46 93.1802L108.326 94.5097L108.715 95.5283L108.625 96.2131L108.086 96.5647L107.154 96.6063L105.906 96.3792L104.429 95.9379L102.811 95.3435L101.136 94.6579L99.4753 93.94L97.8904 93.2423L96.4277 92.6096L95.1216 92.079L93.9955 91.6799L93.0638 91.4354L92.334 91.3631L91.8081 91.4765L91.4838 91.7849L91.3553 92.2947L91.4132 93.0083L91.6445 93.9242L92.0321 95.0353L92.5532 96.3279L93.1789 97.7793L93.8729 99.3561L94.591 101.013L95.2812 102.69L95.8851 104.315L96.3409 105.807L96.5871 107.076L96.5687 108.036L96.2428 108.609L95.5849 108.736L94.5925 108.385L93.2865 107.557L91.71 106.283L89.9232 104.626L87.9969 102.67L86.0049 100.512L84.0171 98.2519L82.0942 95.9839L80.2851 93.7912L78.6253 91.7418L77.1382 89.8889L75.8372 88.2719L74.728 86.92L73.8114 85.8556L73.0862 85.0991L72.5519 84.673L72.2104 84.6077L72.0693 84.9466L72.1443 85.755L72.4629 87.13L73.0703 89.2182L74.0378 92.2409L75.4769 96.5386L76.5255 100.126L74.0337 95.0684L72.2526 91.529L70.9695 89.0862L70.047 87.4696L69.394 86.503L68.9485 86.0713L68.6675 86.0995L68.5201 86.5396L68.4831 87.3611L68.5384 88.5448L68.6701 90.0765L68.8632 91.9421L69.1021 94.1225L69.3694 96.5889L69.6458 99.2979L69.9094 102.188L70.1366 105.179L70.3031 108.17L70.3861 111.047L70.3657 113.689L70.228 115.976L69.9666 117.807L69.5834 119.108L69.0888 119.839L68.5005 120L67.8407 119.63L67.134 118.799L66.4046 117.598L65.6741 116.133L64.9597 114.508L64.2741 112.822L63.6253 111.162L63.0166 109.602L62.4477 108.199L61.9158 106.997L61.4155 106.03L60.9402 105.318L60.4822 104.877L60.0334 104.714L59.5852 104.832L59.1293 105.229L58.6572 105.899L58.1614 106.827L57.6349 107.993L57.0722 109.366L56.4699 110.905L55.8273 112.554L55.1472 114.241L54.4367 115.882L53.7077 117.38L52.9768 118.629L52.2649 119.526L51.596 119.975L50.9947 119.902L50.4839 119.263L50.082 118.052L49.8008 116.301L49.6436 114.079L49.6053 111.487L49.673 108.639L49.8278 105.658L50.0469 102.66L50.3063 99.748L50.5822 97.0055L50.8523 94.4971L51.0969 92.2689L51.2984 90.3517L51.4409 88.7658L51.5093 87.5258L51.4882 86.6455L51.3598 86.143L51.1019 86.0465L50.6851 86.4008L50.0687 87.2757L49.1943 88.7789L47.9764 91.075L46.2864 94.4163L43.9264 99.1949L44.2354 97.3725L45.7637 92.8291L46.7975 89.6299L47.4567 87.4102L47.8177 85.9329L47.9293 85.0419L47.8213 84.6332L47.5111 84.6376L47.0072 85.0084L46.3124 85.714L45.4264 86.7307L44.3478 88.0382L43.0772 89.6147L41.6191 91.4324L39.9856 93.4537L38.1981 95.6277L36.2905 97.8889L34.3092 100.156L32.3133 102.337L30.3717 104.332L28.5578 106.043L26.9434 107.383L25.591 108.285L24.5465 108.713L23.8349 108.66L23.4573 108.155L23.3924 107.252L23.5999 106.026L24.0263 104.564L24.6108 102.954L25.2913 101.28L26.0086 99.616L26.7096 98.0231L27.3489 96.5492L27.8888 95.2295L28.2992 94.0883L28.5567 93.1407L28.6432 92.3947L28.5451 91.8525L28.2525 91.5123L27.7589 91.3685L27.0616 91.4119L26.1617 91.6301L25.0658 92.006L23.787 92.5174L22.3473 93.1361L20.7791 93.8262L19.1271 94.5443L17.4493 95.2388L15.8169 95.8519L14.3115 96.3218L13.0212 96.5868L12.0337 96.5912L11.4276 96.291L11.2634 95.6599L11.5755 94.6936L12.3667 93.4111L13.6068 91.8541L15.2361 90.0814L17.1716 88.1634L19.3171 86.1739L21.5726 84.1832L23.843 82.2531L26.0443 80.4333L28.1071 78.7605L29.9772 77.259L31.614 75.9428L32.9879 74.8181L34.0758 73.8861L34.8575 73.1457L35.3108 72.5961L35.4063 72.2391L35.1016 72.0816L34.3338 72.1385L33.0085 72.4364L30.9842 73.0187L28.0466 73.9541L23.8671 75.3504L19.3948 76.7724L24.5972 74.2114L28.2392 72.3827L30.7577 71.0656L32.4326 70.1182L33.446 69.4462L33.9171 68.986L33.9235 68.6931L33.5149 68.5359L32.723 68.4909L31.5676 68.5395L30.0633 68.6657L28.2238 68.8544L26.0677 69.0903L23.6229 69.356L20.9314 69.6325L18.0529 69.8979L15.0668 70.1289L12.0718 70.3012L9.18143 70.3916L6.5172 70.3801L4.19776 70.2521L2.32693 70.0005L0.982112 69.6267L0.205536 69.1404L0 68.5587L0.330004 67.9037L1.1277 67.1998L2.30221 66.4713L3.75029 65.7401L5.3664 65.0239L7.05086 64.3356L8.71536 63.6836L10.2858 63.0716L11.703 62.4997L12.9217 61.9649L13.9089 61.4623L14.6416 60.9852L15.1048 60.5261L15.2901 60.0769L15.1943 59.6289L14.8189 59.1739L14.1707 58.7034L13.2625 58.2097L12.1145 57.6858L10.7563 57.1261L9.22892 56.527L7.58706 55.8876L5.90001 55.2102L4.25177 54.5017L2.73885 53.7735L1.4657 53.042L0.537305 52.3278L0.0496561 51.6545L0.0790515 51.0468L0.672139 50.528L1.83869 50.1169L3.54883 49.8259L5.7356 49.6589L8.30242 49.6115L11.134 49.6714L14.1086 49.82L17.1091 50.0349L20.0314 50.292L22.7899 50.5674L25.3186 50.8388L27.5703 51.0861L29.513 51.2916L31.1257 51.4394L32.3937 51.5143L33.3032 51.5009L33.8366 51.3818L33.9667 51.1351L33.6505 50.7322L32.8205 50.1336L31.3725 49.2823L29.1476 48.0957L25.9018 46.4493L21.257 44.1521L22.1986 44.0943L26.87 45.669L30.1604 46.7372L32.448 47.423L33.9777 47.8057L34.911 47.9358L35.3552 47.8446L35.3818 47.55L35.0388 47.0614L34.359 46.3818L33.3664 45.511L32.0814 44.4477L30.5255 43.1921L28.7259 41.7486L26.7193 40.1282L24.5553 38.3519L22.2985 36.4521L20.0283 34.4746L17.837 32.4773L15.8238 30.5286L14.0871 28.7017L12.7153 27.0689L11.7763 25.6935L11.3103 24.6232L11.3251 23.8847L11.7959 23.481L12.6698 23.3924L13.8729 23.5801L15.3195 23.9912L16.9207 24.5655L18.5923 25.2406L20.2594 25.9571L21.8598 26.6612L23.3446 27.3069L24.6774 27.8559L25.8334 28.2777L26.7967 28.5481L27.559 28.6488L28.1173 28.5658L28.4734 28.2889L28.6326 27.8115L28.6036 27.1303L28.3988 26.2464L28.0348 25.1656L27.5332 23.9006L26.9219 22.4726L26.236 20.913L25.5185 19.2656L24.8201 17.5874L24.1983 15.9484L23.7147 14.4296L23.4312 13.1188L23.4043 12.1041L23.679 11.465L24.2832 11.264L25.2232 11.5376L26.4816 12.2914L28.0187 13.4977L29.7765 15.0988L31.6855 17.0135L33.6719 19.1461L35.6648 21.3966L37.6016 23.6692L39.4316 25.8789L41.117 27.9551L42.6327 29.8423L43.9638 31.499L45.1038 32.8948L46.051 34.0063L46.8066 34.8132L47.3714 35.2937L47.7439 35.419L47.9177 35.1481L47.8786 34.42L47.6013 33.1435L47.0438 31.1814L46.1399 28.3265L44.7856 24.2615L42.9874 18.9003L45.6194 24.2528L47.497 28.0007L48.8487 30.597L49.8216 32.3315L50.5128 33.3926L50.988 33.9036L51.2929 33.9448L51.4599 33.568L51.5131 32.8057L51.4714 31.6786L51.3509 30.2015L51.1665 28.388L50.9339 26.2561L50.6698 23.8328L50.3935 21.1588L50.1264 18.2924L49.8917 15.3113L49.7139 12.3128L49.6162 9.40949L49.619 6.72262L49.7374 4.37149L49.979 2.46156L50.3433 1.07271L50.8211 0.250203L51.396 0L52.046 0.289488L52.7469 1.05308L53.4741 2.20135L54.2058 3.63163L54.9237 5.23824L55.6145 6.92078L56.2696 8.58989L56.8848 10.1703L57.4598 11.6016L57.9973 12.8376L58.5022 13.8442L58.981 14.5978L59.4412 15.083L59.8909 15.2906L60.3386 15.2172L60.7928 14.8638L61.2617 14.237L61.7533 13.3488L62.2745 12.2189L62.8311 10.8759L63.427 9.36012L64.0632 7.72493L64.7377 6.03848L65.444 4.38364L66.1711 2.85609L66.9031 1.55986L67.6195 0.600244L68.2969 0.0743405L68.9106 0.0604054L69.4372 0.607766L69.8574 1.7293L70.1583 3.39826L70.3351 5.55043L70.3916 8.0912L70.3397 10.9064L70.1973 13.8742L69.9868 16.8768L69.7322 19.8089L69.4575 22.5833L69.185 25.1325L68.9351 27.4077L68.7257 29.376L68.5728 31.0157L68.4915 32.3117L68.4972 33.2504L68.6073 33.8146L68.8428 33.9782L69.2319 33.6996L69.8132 32.9137L70.6416 31.5198L71.7976 29.3641L73.4013 26.2111L75.6374 21.6957L76.0604 21.7569L74.4382 26.5605L73.3351 29.9451L72.6223 32.3023L72.2176 33.8857L72.0687 34.862L72.1432 35.3422L72.4219 35.4L72.8953 35.0851L73.5597 34.4311L74.4151 33.4626L75.463 32.2L76.7032 30.6647L78.132 28.8832L79.7388 26.8913L81.5037 24.7376L83.395 22.4852L85.3682 20.2128L87.3661 18.0114L89.3213 15.9802L91.1604 14.218L92.8111 12.8142L94.2088 11.8388L95.3046 11.3344L96.0699 11.3114L96.4998 11.7475L96.6123 12.5919L96.4449 13.7719L96.0494 15.2024L95.4858 16.7946L94.8166 18.4636L94.1014 20.1337L93.3945 21.7415L92.7427 23.237L92.1848 24.5831L91.752 25.7539L91.4688 26.733L91.354 27.5115L91.422 28.0861L91.6831 28.4581L92.1444 28.6327L92.8092 28.6184L93.6771 28.427L94.7425 28.0749L95.9934 27.5833L97.4094 26.9796L98.9598 26.2981L100.602 25.5813L102.28 24.8793L103.925 24.2491L105.456 23.7522L106.787 23.4506L107.828 23.4014L108.5 23.6508L108.737 24.2283L108.502 25.1419L107.786 26.3762L106.614 27.8931L105.042 29.6359L103.149 31.5357L101.03 33.5187L98.7855 35.5137L96.5115 37.4571L94.2942 39.2972L92.2053 40.9954L90.3015 42.5253L88.6253 43.8716L87.2079 45.027L86.0731 45.9896L85.2411 46.7604L84.7338 47.3405L84.5789 47.7285L84.8163 47.9185L85.5051 47.8971L86.7336 47.64L88.6345 47.1069L91.4082 46.2337L95.3614 44.9202L100.972 43.0091L96.1082 45.4482L92.2521 47.3762L89.5766 48.7637L87.7816 49.7627L86.6721 50.4736L86.1208 50.9642L86.0443 51.2814L86.3892 51.4584L87.1217 51.5199L88.2202 51.4852L89.6698 51.3703L91.457 51.1905L93.5642 50.9611L95.9655 50.6988L98.6212 50.4227L101.475 50.154L104.45 49.9159L107.451 49.7326L110.366 49.6277L113.074 49.6219L115.456 49.7307L117.404 49.9624L118.837 50.3172L119.705 50.7866L120 51.3545L119.751 51.9994L119.023 52.6972L117.901 53.4233L116.49 54.1553L114.894 54.875L113.214 55.5683L111.541 56.2265L109.951 56.8449L108.506 57.4231L107.253 57.9635L106.227 58.4709L105.453 58.9515L104.946 59.4129L104.716 59.8632L104.702 60.0057Z" fill="white"/>
</svg>
