<?xml version="1.0" encoding="UTF-8" standalone="no"?><svg width="180" height="104" viewBox="0 0 180 104" fill="none" xmlns="http://www.w3.org/2000/svg">
<path fill-rule="evenodd" clip-rule="evenodd" d="M0 37.793L0.853081 36.4464L1.70616 35.1112L2.55924 33.7883L3.41232 32.4787L4.2654 31.1834L5.11848 29.9033L5.97156 28.6393L6.82464 27.3924L7.67773 26.1634L8.53081 24.9533L9.38389 23.763L10.237 22.5933L11.09 21.4451L11.9431 20.3192L12.7962 19.2164L13.6493 18.1376L14.5024 17.0835L15.3555 16.0549L16.2085 15.0526L17.0616 14.0773L17.9147 13.1296L18.7678 12.2104L19.6209 11.3202L20.4739 10.4597L21.327 9.6296L22.1801 8.83041L23.0332 8.06276L23.8863 7.32721L24.7393 6.62428L25.5924 5.95449L26.4455 5.31834L27.2986 4.71629L28.1517 4.14877L29.0047 3.6162L29.8578 3.11897L30.7109 2.65745L31.564 2.23197L32.4171 1.84284L33.2701 1.49034L34.1232 1.17474L34.9763 0.896259L35.8294 0.655107L36.6825 0.451457L37.5355 0.28546L38.3886 0.157236L39.2417 0.0668783L40.0948 0.0144536L40.9479 0L41.8009 0.023528L42.654 0.0850204L43.5071 0.184432L44.3602 0.321691L45.2133 0.496697L46.0663 0.709321L46.9194 0.959409L47.7725 1.24678L48.6256 1.57122L49.4787 1.93249L50.3318 2.33033L51.1848 2.76446L52.0379 3.23454L52.891 3.74025L53.7441 4.2812L54.5972 4.85701L55.4502 5.46725L56.3033 6.11149L57.1564 6.78923L58.0095 7.50001L58.8626 8.24328L59.7156 9.01852L60.5687 9.82515L61.4218 10.6626L62.2749 11.5302L63.128 12.4274L63.981 13.3535L64.8341 14.3078L65.6872 15.2897L66.5403 16.2983L67.3934 17.3331L68.2464 18.3931L69.0995 19.4777L69.9526 20.5861L70.8057 21.7174L71.6588 22.8709L72.5118 24.0456L73.3649 25.2407L74.218 26.4554L75.0711 27.6887L75.9242 28.9398L76.7773 30.2077L77.6303 31.4915L78.4834 32.7904L79.3365 34.1032L80.1896 35.4292L81.0427 36.7672L81.8957 38.1163L82.7488 39.4756L83.6019 40.8441L84.455 42.2207L85.3081 43.6044L86.1611 44.9943L87.0142 46.3893L87.8673 47.7884L88.7204 49.1905L89.5735 50.5948L90.4265 52L91.2796 53.4052L92.1327 54.8095L92.9858 56.2116L93.8389 57.6107L94.6919 59.0057L95.545 60.3956L96.3981 61.7793L97.2512 63.1559L98.1043 64.5244L98.9573 65.8836L99.8104 67.2328L100.664 68.5708L101.517 69.8968L102.37 71.2096L103.223 72.5085L104.076 73.7923L104.929 75.0602L105.782 76.3113L106.635 77.5446L107.488 78.7593L108.341 79.9544L109.194 81.1291L110.047 82.2826L110.9 83.4139L111.754 84.5222L112.607 85.6069L113.46 86.6669L114.313 87.7017L115.166 88.7103L116.019 89.6922L116.872 90.6465L117.725 91.5726L118.578 92.4698L119.431 93.3374L120.284 94.1749L121.137 94.9815L121.991 95.7567L122.844 96.5L123.697 97.2108L124.55 97.8885L125.403 98.5327L126.256 99.143L127.109 99.7188L127.962 100.26L128.815 100.765L129.668 101.236L130.521 101.67L131.374 102.068L132.227 102.429L133.081 102.753L133.934 103.041L134.787 103.291L135.64 103.503L136.493 103.678L137.346 103.816L138.199 103.915L139.052 103.976L139.905 104L140.758 103.986L141.611 103.933L142.464 103.843L143.318 103.715L144.171 103.549L145.024 103.345L145.877 103.104L146.73 102.825L147.583 102.51L148.436 102.157L149.289 101.768L150.142 101.343L150.995 100.881L151.848 100.384L152.701 99.8512L153.555 99.2837L154.408 98.6817L155.261 98.0455L156.114 97.3757L156.967 96.6728L157.82 95.9372L158.673 95.1696L159.526 94.3704L160.379 93.5403L161.232 92.6798L162.085 91.7896L162.938 90.8704L163.791 89.9227L164.645 88.9474L165.498 87.9451L166.351 86.9165L167.204 85.8624L168.057 84.7836L168.91 83.6808L169.763 82.5549L170.616 81.4067L171.469 80.237L172.322 79.0467L173.175 77.8366L174.028 76.6076L174.882 75.3607L175.735 74.0967L176.588 72.8166L177.441 71.5213L178.294 70.2117L179.147 68.8888L180 67.5536" fill="white"/>
</svg>
