<svg width="767" height="99" viewBox="0 0 767 99" fill="none" xmlns="http://www.w3.org/2000/svg">
<path d="M61.9511 4.07666L38.7286 50.0486V75.4187H22.6402V50.3398L0 4.07666H18.3451L29.8472 30.6843C30.0292 31.1939 30.6116 33.1231 31.4851 36.5082H31.6671C32.1039 34.1058 32.6135 32.2495 33.1959 30.9027L44.88 4.07666H61.9147H61.9511Z" fill="white"/>
<path d="M120.008 75.4551H102.5L97.4402 59.5852H72.0701L67.047 75.4551H49.6119L75.5644 4.07666H94.6375L120.008 75.4187V75.4551ZM93.7275 47.2459L86.0473 23.2589C85.4649 21.4754 85.1009 19.3278 84.8461 16.8527H84.4457C84.2637 18.9275 83.8633 21.0022 83.2082 23.0769L75.4552 47.2459H93.7275Z" fill="white"/>
<path d="M183.706 75.4551H165.252L154.15 57.11C153.313 55.7269 152.512 54.4893 151.748 53.3609C150.983 52.2689 150.219 51.3226 149.418 50.5582C148.654 49.7938 147.816 49.175 146.979 48.7746C146.142 48.3743 145.196 48.1559 144.213 48.1559H139.881V75.4915H123.793V4.07666H149.272C166.598 4.07666 175.261 10.5557 175.261 23.4773C175.261 25.9525 174.897 28.2456 174.133 30.3567C173.369 32.4679 172.277 34.3606 170.893 36.0714C169.51 37.7821 167.8 39.2381 165.834 40.4393C163.868 41.6768 161.648 42.6232 159.246 43.3148V43.4968C160.301 43.8244 161.32 44.3704 162.34 45.0983C163.359 45.8263 164.305 46.6999 165.215 47.7191C166.125 48.7018 167.035 49.7938 167.872 50.9222C168.709 52.0506 169.474 53.1789 170.202 54.2709L183.706 75.3823V75.4551ZM139.881 16.1247V35.9986H146.834C150.292 35.9986 153.058 35.0158 155.133 33.0139C157.244 30.9755 158.336 28.5004 158.336 25.5157C158.336 19.2914 154.587 16.1611 147.125 16.1611H139.845L139.881 16.1247Z" fill="white"/>
<path d="M185.271 75.4551V4.07666H210.568C235.902 4.07666 248.605 15.6879 248.605 38.8741C248.605 49.9758 245.147 58.8572 238.231 65.4818C231.316 72.1064 222.107 75.4187 210.605 75.4187H185.307L185.271 75.4551ZM201.359 17.1803V62.4243H209.331C216.283 62.4243 221.779 60.3495 225.71 56.1636C229.678 51.9778 231.643 46.2995 231.643 39.0925C231.643 32.2859 229.678 26.9352 225.747 23.0405C221.816 19.1459 216.283 17.1803 209.185 17.1803H201.323H201.359Z" fill="white"/>
<path d="M271.391 75.4551H255.303V4.07666H271.391V75.4551Z" fill="white"/>
<path d="M333.597 75.4551V4.07666H338.511V75.4551H333.597Z" fill="white"/>
<path d="M385.393 75.4552V45.79C385.393 33.5599 380.988 27.4449 372.143 27.4449C367.23 27.4449 363.189 29.2284 360.059 32.8319C356.892 36.4354 355.327 40.8761 355.327 46.1904V75.4552H350.741V24.4965H355.327V33.7419H355.509C359.222 26.7533 365.046 23.259 372.944 23.259C378.44 23.259 382.663 25.0789 385.575 28.7552C388.487 32.4315 389.943 37.673 389.943 44.4432V75.4552H385.356H385.393Z" fill="white"/>
<path d="M397.55 73.1984V67.6658C399.261 69.1581 401.372 70.3229 403.811 71.1965C406.249 72.0701 408.397 72.5068 410.181 72.5068C418.188 72.5068 422.156 69.2309 422.156 62.7155C422.156 60.4588 421.282 58.5296 419.535 56.9281C417.788 55.3265 414.912 53.6885 410.981 52.0142C406.104 49.9031 402.682 47.6827 400.717 45.426C398.751 43.1692 397.768 40.4029 397.768 37.127C397.768 32.9775 399.334 29.6288 402.537 27.0809C405.703 24.5329 409.598 23.259 414.257 23.259C418.625 23.259 422.374 24.1689 425.504 25.9525V31.1212C421.719 28.6824 417.824 27.4449 413.748 27.4449C410.399 27.4449 407.705 28.3184 405.631 30.0656C403.556 31.8127 402.537 34.0695 402.537 36.8722C402.537 39.3109 403.192 41.2765 404.466 42.7688C405.74 44.2612 408.615 46.0084 413.02 47.9739C418.334 50.3762 421.974 52.5602 423.976 54.6349C425.978 56.7097 426.96 59.4032 426.96 62.7883C426.96 66.8286 425.432 70.1773 422.411 72.798C419.389 75.4188 415.204 76.7655 409.853 76.7655C404.939 76.7655 400.862 75.6008 397.55 73.2712V73.1984Z" fill="white"/>
<path d="M454.806 74.7634C452.403 75.8918 450.183 76.4378 448.072 76.4378C440.537 76.4378 436.788 71.9243 436.788 62.8974V28.6823H427.615V24.4964H436.788V11.2472C437.516 10.9924 438.28 10.7012 439.081 10.4464C439.882 10.228 440.646 9.9732 441.374 9.68201V24.46H454.806V28.6459H441.374V62.2786C441.374 65.8093 441.92 68.3572 443.049 69.9224C444.141 71.4875 446.033 72.2883 448.69 72.2883C450.583 72.2883 452.622 71.6695 454.806 70.432V74.727V74.7634Z" fill="white"/>
<path d="M490.295 75.4551V65.2634H490.113C488.475 68.7577 486.109 71.5241 483.015 73.5988C479.921 75.6735 476.463 76.6927 472.677 76.6927C467.836 76.6927 464.015 75.346 461.175 72.616C458.336 69.8861 456.953 66.4646 456.953 62.3151C456.953 53.4338 462.85 48.0467 474.607 46.1903L490.295 43.8608C490.295 32.9047 486.182 27.4449 477.955 27.4449C472.35 27.4449 466.89 29.7016 461.576 34.2151V28.6824C463.469 27.1901 466.016 25.9161 469.256 24.8605C472.495 23.805 475.517 23.259 478.392 23.259C483.634 23.259 487.674 24.8969 490.549 28.1364C493.425 31.376 494.844 36.1078 494.844 42.3321V75.4551H490.258H490.295ZM476.245 50.085C470.894 50.8494 467.145 52.087 464.997 53.7977C462.85 55.5085 461.758 58.2748 461.758 62.1331C461.758 65.1542 462.777 67.6294 464.779 69.5949C466.781 71.5605 469.584 72.5432 473.151 72.5432C478.065 72.5432 482.141 70.7233 485.381 67.0834C488.62 63.4435 490.258 58.748 490.258 53.0334V48.0467L476.208 50.085H476.245Z" fill="white"/>
<path d="M505.109 75.4551V0H509.695V75.4551H505.109Z" fill="white"/>
<path d="M520.906 75.4551V0H525.492V75.4551H520.906Z" fill="white"/>
<path d="M537.795 50.1579C537.795 57.1465 539.397 62.6427 542.636 66.5738C545.876 70.5049 550.317 72.5069 555.958 72.5069C561.6 72.5069 567.242 70.3957 572.666 66.1734V71.0509C567.388 74.8 561.491 76.6563 555.012 76.6563C548.533 76.6563 543.146 74.2904 539.069 69.5949C534.993 64.8995 532.991 58.2384 532.991 49.6483C532.991 42.2229 535.102 35.9622 539.324 30.8664C543.546 25.7705 549.043 23.2226 555.813 23.2226C562.146 23.2226 567.024 25.4429 570.409 29.8836C573.794 34.3243 575.468 40.4029 575.468 48.0831V50.1215H537.759L537.795 50.1579ZM570.736 45.972C570.554 40.1117 569.135 35.5255 566.514 32.286C563.893 29.0464 560.29 27.4085 555.667 27.4085C551.045 27.4085 546.931 29.01 543.801 32.2132C540.671 35.4163 538.742 40.0025 538.014 45.972H570.773H570.736Z" fill="white"/>
<path d="M607.099 29.2649C605.57 28.1729 603.787 27.6269 601.712 27.6269C597.708 27.6269 594.323 29.7016 591.593 33.8511C588.863 38.0006 587.516 43.8973 587.516 51.5047V75.4552H583.039V24.4966H587.516V35.7803H587.698C588.863 31.8856 590.72 28.8645 593.231 26.7169C595.743 24.5694 598.691 23.4774 602.003 23.4774C603.896 23.4774 605.57 23.7686 607.063 24.3874V29.2649H607.099Z" fill="white"/>
<path d="M659.077 75.4551L650.924 53.2518H619.984L611.831 75.4551H606.408L633.343 4.1131H638.038L664.646 75.4551H659.113H659.077ZM637.165 15.7244C636.801 14.7416 636.51 13.7588 636.255 12.7761C636.036 11.9389 635.782 11.1017 635.49 10.3009H635.308C634.726 12.4849 634.18 14.2684 633.67 15.6152L621.695 48.7019H649.213L637.165 15.7244Z" fill="white"/>
<path d="M675.384 66.3918H675.202V98.8961H670.615V24.4966H675.202V34.9795H675.384C677.204 31.2304 679.824 28.3185 683.209 26.2801C686.594 24.2418 690.344 23.2226 694.42 23.2226C700.899 23.2226 705.959 25.4429 709.562 29.92C713.166 34.3971 715.022 40.4393 715.022 48.1195C715.022 56.6369 712.947 63.5527 708.762 68.7942C704.576 74.0356 699.079 76.6927 692.273 76.6927C684.629 76.6927 678.987 73.2712 675.347 66.3918H675.384ZM675.202 47.4279V53.8342C675.202 58.93 676.803 63.3343 680.043 67.0106C683.246 70.6869 687.505 72.5069 692.746 72.5069C697.987 72.5069 702.173 70.2865 705.449 65.8094C708.689 61.3324 710.327 55.4721 710.327 48.2287C710.327 41.8589 708.834 36.7994 705.85 33.0503C702.865 29.3012 698.897 27.4449 693.911 27.4449C687.978 27.4449 683.391 29.4468 680.116 33.4143C676.876 37.3818 675.238 42.0773 675.238 47.4279H675.202Z" fill="white"/>
<path d="M727.361 66.3918H727.179V98.8961H722.593V24.4966H727.179V34.9795H727.361C729.181 31.2304 731.802 28.3185 735.187 26.2801C738.572 24.2418 742.321 23.2226 746.398 23.2226C752.877 23.2226 757.937 25.4429 761.54 29.92C765.144 34.3971 767 40.4393 767 48.1195C767 56.6369 764.925 63.5527 760.776 68.7942C756.626 74.0356 751.094 76.6927 744.287 76.6927C736.643 76.6927 731.001 73.2712 727.361 66.3918ZM727.179 47.4279V53.8342C727.179 58.93 728.781 63.3343 732.02 67.0106C735.224 70.6869 739.482 72.5069 744.724 72.5069C749.965 72.5069 754.151 70.2865 757.427 65.8094C760.666 61.3324 762.304 55.4721 762.304 48.2287C762.304 41.8589 760.812 36.7994 757.827 33.0503C754.843 29.3012 750.875 27.4449 745.888 27.4449C739.955 27.4449 735.369 29.4468 732.093 33.4143C728.854 37.3818 727.216 42.0773 727.216 47.4279H727.179Z" fill="white"/>
<path d="M304.223 41.5274C298.581 41.5274 293.813 39.5619 289.845 35.6308C285.914 31.6997 283.912 26.9314 283.912 21.3624C283.912 15.7933 285.914 10.9159 289.882 6.98477C293.849 3.05368 298.617 1.08813 304.187 1.08813C309.756 1.08813 314.56 3.05368 318.528 7.02117C322.495 10.9887 324.497 15.7205 324.497 21.2896C324.497 26.8586 322.532 31.6997 318.564 35.6672C314.597 39.6347 309.828 41.6002 304.187 41.6002L304.223 41.5274ZM304.077 3.34487C299.2 3.34487 295.05 5.09203 291.556 8.62273C288.062 12.1534 286.351 16.3757 286.351 21.326C286.351 26.2763 288.062 30.4621 291.52 33.9564C294.978 37.4507 299.163 39.2343 304.077 39.2343C308.991 39.2343 313.25 37.4871 316.781 33.9564C320.311 30.4621 322.058 26.2399 322.058 21.326C322.058 16.4121 320.275 12.1534 316.744 8.62273C313.214 5.09203 308.991 3.34487 304.041 3.34487H304.077ZM310.629 33.8836L307.535 27.2226C306.625 25.2935 305.752 23.9831 304.915 23.3279C304.077 22.6727 303.131 22.3452 302.075 22.3452H299.491V33.8836H296.725V7.82195H303.859C306.734 7.82195 308.955 8.44073 310.52 9.6783C312.085 10.9159 312.85 12.5902 312.85 14.665C312.85 18.6325 310.593 21.0712 306.043 21.872V21.9812C307.572 22.3088 309.028 23.8739 310.374 26.713L313.832 33.8836H310.738H310.629ZM299.455 9.93309V20.1612H304.15C305.897 20.1612 307.317 19.7244 308.372 18.8145C309.428 17.9045 309.974 16.6669 309.974 15.1018C309.974 11.6438 307.826 9.93309 303.531 9.93309H299.491H299.455Z" fill="white"/>
</svg>
