<?xml version="1.0" encoding="UTF-8" standalone="no"?><svg width="32" height="32" viewBox="0 0 32 32" fill="none" xmlns="http://www.w3.org/2000/svg">
<mask id="mask0_762_355" style="mask-type:alpha" maskUnits="userSpaceOnUse" x="0" y="0" width="32" height="32">
<rect x="32" y="32" width="32" height="32" transform="rotate(-180 32 32)" fill="#D9D9D9"/>
</mask>
<g mask="url(#mask0_762_355)">
<path d="M16 2.66668C18.5778 2.66668 20.7778 3.57779 22.6 5.40001C24.4222 7.22223 25.3333 9.42223 25.3333 12L25.3333 20C25.3333 22.5778 24.4222 24.7778 22.6 26.6C20.7778 28.4222 18.5778 29.3333 16 29.3333C13.4222 29.3333 11.2222 28.4222 9.4 26.6C7.57778 24.7778 6.66667 22.5778 6.66667 20L6.66667 12C6.66667 9.42223 7.57778 7.22223 9.4 5.40001C11.2222 3.57779 13.4222 2.66668 16 2.66668ZM14.6667 20L9.33333 20C9.33333 21.6 9.83889 23.0111 10.85 24.2333C11.8611 25.4556 13.1333 26.2222 14.6667 26.5333L14.6667 20ZM22.6667 20L17.3333 20L17.3333 26.5333C18.8667 26.2222 20.1389 25.4556 21.15 24.2333C22.1611 23.0111 22.6667 21.6 22.6667 20ZM16 5.33334C14.1556 5.33334 12.5833 5.98334 11.2833 7.28334C9.98334 8.58334 9.33334 10.1556 9.33334 12L9.33334 17.3333L22.6667 17.3333L22.6667 12C22.6667 10.1556 22.0167 8.58334 20.7167 7.28334C19.4167 5.98334 17.8444 5.33334 16 5.33334Z" fill="white"/>
</g>
</svg>
