<?xml version="1.0" encoding="UTF-8" standalone="no"?><svg width="30" height="30" viewBox="0 0 30 30" fill="none" xmlns="http://www.w3.org/2000/svg">
<path fill-rule="evenodd" clip-rule="evenodd" d="M26.1755 15.0014L26.2106 15.1135L26.3155 15.2278L26.4881 15.3462L26.7251 15.4707L27.021 15.603L27.3681 15.7445L27.7555 15.8959L28.169 16.0573L28.5907 16.228L28.9991 16.4062L29.3696 16.5886L29.6759 16.7712L29.8919 16.9485L29.9944 17.1147L29.9651 17.2634L29.7939 17.3891L29.4799 17.4872L29.032 17.5551L28.4684 17.5919L27.8142 17.5993L27.0985 17.5804L26.352 17.5402L25.6033 17.4844L24.878 17.419L24.1965 17.35L23.5747 17.2828L23.0236 17.2223L22.5508 17.173L22.1611 17.1387L21.8582 17.1232L21.6454 17.1304L21.5276 17.1649L21.512 17.2323L21.6102 17.34L21.8402 17.4987L22.2301 17.7232L22.8222 18.0358L23.6819 18.4695L24.9108 19.0758L24.2349 18.9063L23.1302 18.5355L22.3528 18.2854L21.8145 18.1272L21.4581 18.0422L21.2458 18.0189L21.1524 18.0501L21.1612 18.1316L21.2608 18.2614L21.4436 18.4389L21.7037 18.6642L22.0361 18.9377L22.4353 19.2592L22.8941 19.6273L23.403 20.0391L23.9488 20.4887L24.515 20.9676L25.081 21.4638L25.6234 21.9624L26.1173 22.446L26.5383 22.8961L26.865 23.2951L27.0814 23.6274L27.1787 23.8821L27.1562 24.0533L27.0214 24.1412L26.7885 24.1516L26.4766 24.0948L26.1073 23.9845L25.7028 23.8359L25.2839 23.6645L24.8688 23.485L24.4726 23.3106L24.1069 23.1524L23.7804 23.0198L23.4989 22.92L23.2659 22.8588L23.0835 22.8408L22.952 22.8691L22.871 22.9462L22.8388 23.0737L22.8533 23.2521L22.9111 23.481L23.008 23.7588L23.1383 24.082L23.2947 24.4448L23.4682 24.839L23.6477 25.2531L23.8203 25.6724L23.9713 26.0788L24.0852 26.4517L24.1468 26.769L24.1422 27.009L24.0607 27.1522L23.8962 27.184L23.6481 27.0964L23.3216 26.8892L22.9275 26.5708L22.4808 26.1565L21.9992 25.6675L21.5012 25.128L21.0043 24.563L20.5236 23.996L20.0713 23.4478L19.6563 22.9355L19.2846 22.4722L18.9593 22.068L18.682 21.73L18.4528 21.4639L18.2716 21.2748L18.138 21.1683L18.0526 21.1519L18.0173 21.2367L18.0361 21.4387L18.1157 21.7825L18.2676 22.3045L18.5095 23.0602L18.8692 24.1346L19.1314 25.0314L18.5084 23.7671L18.0632 22.8823L17.7424 22.2716L17.5118 21.8674L17.3485 21.6258L17.2371 21.5178L17.1669 21.5249L17.13 21.6349L17.1208 21.8403L17.1346 22.1362L17.1675 22.5191L17.2158 22.9855L17.2755 23.5306L17.3424 24.1472L17.4114 24.8245L17.4773 25.5471L17.5341 26.2948L17.5758 27.0426L17.5965 27.7619L17.5914 28.4221L17.557 28.994L17.4916 29.4519L17.3958 29.777L17.2722 29.9597L17.1251 30L16.9602 29.9075L16.7835 29.6996L16.6012 29.3996L16.4185 29.0332L16.2399 28.6269L16.0685 28.2054L15.9063 27.7905L15.7541 27.4004L15.6119 27.0497L15.4789 26.7493L15.3539 26.5074L15.235 26.3295L15.1205 26.2191L15.0083 26.1784L14.8963 26.2079L14.7823 26.3073L14.6643 26.4747L14.5403 26.7067L14.4087 26.9982L14.2681 27.3416L14.1175 27.7263L13.9568 28.1384L13.7868 28.5602L13.6092 28.9705L13.4269 29.345L13.2442 29.6574L13.0662 29.8815L12.899 29.9938L12.7487 29.9755L12.621 29.8158L12.5205 29.5129L12.4502 29.0751L12.4109 28.5199L12.4013 27.8717L12.4183 27.1598L12.4569 26.4146L12.5117 25.6651L12.5766 24.937L12.6455 24.2514L12.7131 23.6243L12.7742 23.0672L12.8246 22.5879L12.8602 22.1915L12.8773 21.8815L12.8721 21.6614L12.8399 21.5357L12.7755 21.5116L12.6713 21.6002L12.5172 21.8189L12.2986 22.1947L11.9941 22.7687L11.5716 23.6041L10.9816 24.7987L11.0589 24.3431L11.4409 23.2073L11.6994 22.4075L11.8642 21.8525L11.9544 21.4832L11.9823 21.2605L11.9553 21.1583L11.8778 21.1594L11.7518 21.2521L11.5781 21.4285L11.3566 21.6827L11.087 22.0095L10.7693 22.4037L10.4048 22.8581L9.99639 23.3634L9.54953 23.9069L9.07262 24.4722L8.5773 25.0391L8.07833 25.5843L7.59292 26.0831L7.13945 26.5107L6.73586 26.8456L6.39774 27.0713L6.13663 27.1781L5.95873 27.165L5.86433 27.0387L5.84809 26.813L5.89997 26.5065L6.00657 26.141L6.1527 25.7385L6.32283 25.32L6.50215 24.904L6.67741 24.5058L6.83722 24.1373L6.97219 23.8074L7.07481 23.5221L7.13919 23.2852L7.16081 23.0987L7.13627 22.9631L7.06312 22.8781L6.93973 22.8421L6.7654 22.853L6.54043 22.9075L6.26644 23.0015L5.94675 23.1294L5.58682 23.284L5.19477 23.4566L4.78177 23.6361L4.36234 23.8097L3.95422 23.963L3.57787 24.0804L3.25531 24.1467L3.00843 24.1478L2.8569 24.0728L2.81586 23.915L2.89388 23.6734L3.09167 23.3528L3.40171 22.9635L3.80902 22.5204L4.2929 22.0409L4.82928 21.5435L5.39316 21.0458L5.96075 20.5633L6.51108 20.1083L7.02677 19.6901L7.49429 19.3147L7.9035 18.9857L8.24696 18.7045L8.51895 18.4715L8.71439 18.2864L8.82771 18.149L8.85157 18.0598L8.7754 18.0204L8.58344 18.0346L8.25212 18.1091L7.74604 18.2547L7.01164 18.4885L5.96677 18.8376L4.84871 19.1931L6.1493 18.5529L7.05981 18.0957L7.68943 17.7664L8.10815 17.5295L8.3615 17.3616L8.47927 17.2465L8.48086 17.1733L8.37873 17.134L8.18075 17.1227L7.89191 17.1349L7.51582 17.1664L7.05595 17.2136L6.51692 17.2726L5.90572 17.339L5.23284 17.4081L4.51322 17.4745L3.76671 17.5322L3.01795 17.5753L2.29536 17.5979L1.6293 17.595L1.04944 17.563L0.581732 17.5001L0.245528 17.4067L0.0513839 17.2851L0 17.1397L0.0825009 16.9759L0.281925 16.7999L0.575553 16.6178L0.937572 16.435L1.3416 16.256L1.76272 16.0839L2.17884 15.9209L2.57145 15.7679L2.92575 15.6249L3.23042 15.4912L3.47722 15.3656L3.66039 15.2463L3.77621 15.1315L3.82254 15.0192L3.79857 14.9072L3.70472 14.7935L3.54268 14.6758L3.31564 14.5524L3.02863 14.4214L2.68907 14.2815L2.30723 14.1318L1.89676 13.9719L1.475 13.8026L1.06294 13.6254L0.684713 13.4434L0.366424 13.2605L0.134326 13.0819L0.012414 12.9136L0.0197629 12.7617L0.168035 12.632L0.459673 12.5292L0.887208 12.4565L1.4339 12.4147L2.07561 12.4029L2.78351 12.4178L3.52716 12.455L4.27727 12.5087L5.00785 12.573L5.69747 12.6419L6.32965 12.7097L6.89257 12.7715L7.37824 12.8229L7.78143 12.8598L8.09841 12.8786L8.32579 12.8752L8.45914 12.8454L8.49168 12.7838L8.41263 12.6831L8.20512 12.5334L7.84313 12.3206L7.28689 12.0239L6.47545 11.6123L5.31424 11.038L5.54965 11.0236L6.71749 11.4173L7.54011 11.6843L8.112 11.8558L8.49443 11.9514L8.72776 11.984L8.83879 11.9611L8.84544 11.8875L8.7597 11.7653L8.58975 11.5954L8.3416 11.3777L8.02034 11.1119L7.63137 10.798L7.18147 10.4371L6.67982 10.0321L6.13883 9.58797L5.57462 9.11303L5.00709 8.61864L4.45925 8.11933L3.95594 7.63214L3.52178 7.17542L3.17882 6.76721L2.94408 6.42337L2.82759 6.15581L2.83128 5.97118L2.94898 5.87025L3.16745 5.84811L3.46822 5.89502L3.82987 5.9978L4.23018 6.14137L4.64808 6.31016L5.06486 6.48927L5.46496 6.66531L5.83614 6.82673L6.16936 6.96398L6.45836 7.06942L6.69919 7.13703L6.88974 7.1622L7.02932 7.14144L7.11834 7.07222L7.15814 6.95286L7.1509 6.78258L7.0997 6.56159L7.0087 6.29139L6.8833 5.97515L6.73048 5.61815L6.559 5.22825L6.37962 4.81641L6.20502 4.39685L6.04957 3.98709L5.92869 3.60739L5.85781 3.27971L5.85107 3.02602L5.91974 2.86626L6.0708 2.816L6.3058 2.88441L6.6204 3.07285L7.00467 3.37443L7.44413 3.77471L7.92138 4.25338L8.41798 4.78654L8.91619 5.34916L9.40039 5.91731L9.85789 6.46973L10.2793 6.98876L10.6582 7.46056L10.991 7.87475L11.2759 8.22369L11.5128 8.50157L11.7016 8.70331L11.8428 8.82341L11.936 8.85474L11.9794 8.78703L11.9697 8.60501L11.9003 8.28588L11.761 7.79535L11.535 7.08163L11.1964 6.06537L10.7469 4.72508L11.4049 6.06321L11.8743 7.00018L12.2122 7.64925L12.4554 8.08287L12.6282 8.34815L12.747 8.4759L12.8232 8.48621L12.865 8.392L12.8783 8.20142L12.8679 7.91966L12.8377 7.55037L12.7916 7.097L12.7335 6.56402L12.6675 5.9582L12.5984 5.2897L12.5316 4.57309L12.4729 3.82783L12.4285 3.0782L12.404 2.35237L12.4048 1.68066L12.4343 1.09287L12.4948 0.61539L12.5858 0.268178L12.7053 0.0625509L12.849 0L13.0115 0.0723721L13.1867 0.263271L13.3685 0.550338L13.5515 0.907909L13.7309 1.30956L13.9036 1.7302L14.0674 2.14747L14.2212 2.54257L14.3649 2.9004L14.4993 3.20939L14.6256 3.46105L14.7453 3.64946L14.8603 3.77075L14.9727 3.82266L15.0847 3.80429L15.1982 3.71596L15.3154 3.55924L15.4383 3.3372L15.5686 3.05471L15.7078 2.71898L15.8567 2.34003L16.0158 1.93123L16.1844 1.50962L16.361 1.09591L16.5428 0.714022L16.7258 0.389964L16.9049 0.150061L17.0742 0.0185851L17.2276 0.0151014L17.3593 0.151941L17.4643 0.432324L17.5396 0.849566L17.5838 1.38761L17.5979 2.0228L17.5849 2.72659L17.5493 3.46855L17.4967 4.2192L17.4331 4.95223L17.3644 5.64583L17.2963 6.28312L17.2338 6.85193L17.1814 7.34401L17.1432 7.75393L17.1229 8.07793L17.1243 8.31259L17.1518 8.45365L17.2107 8.49455L17.308 8.42491L17.4533 8.22842L17.6604 7.87995L17.9494 7.34103L18.3503 6.55278L18.9093 5.42392L19.0151 5.43921L18.6096 6.64012L18.3338 7.48626L18.1556 8.07557L18.0544 8.47142L18.0172 8.71551L18.0358 8.83554L18.1055 8.85L18.2238 8.77126L18.3899 8.60777L18.6038 8.36564L18.8657 8.05L19.1758 7.66617L19.533 7.22079L19.9347 6.72283L20.3759 6.18439L20.8487 5.62131L21.342 5.0532L21.8415 4.50286L22.3303 3.99505L22.7901 3.5545L23.2028 3.20355L23.5522 2.95971L23.8261 2.83361L24.0175 2.82785L24.125 2.93689L24.1531 3.14796L24.1112 3.44296L24.0123 3.8006L23.8715 4.19866L23.7041 4.61591L23.5253 5.03342L23.3486 5.43536L23.1857 5.80924L23.0462 6.14577L22.938 6.43848L22.8672 6.68326L22.8385 6.87787L22.8555 7.02152L22.9208 7.11453L23.0361 7.15819L23.2023 7.15459L23.4193 7.10676L23.6856 7.01873L23.9984 6.89583L24.3523 6.74489L24.7399 6.57452L25.1505 6.39531L25.57 6.21981L25.9812 6.06227L26.3641 5.93806L26.6967 5.86265L26.9571 5.85034L27.1249 5.91269L27.1843 6.05706L27.1255 6.28547L26.9465 6.59406L26.6535 6.97328L26.2605 7.40898L25.7872 7.88393L25.2575 8.37969L24.6964 8.87842L24.1279 9.36427L23.5735 9.82431L23.0513 10.2488L22.5754 10.6313L22.1563 10.9679L21.802 11.2567L21.5183 11.4974L21.3103 11.6901L21.1835 11.8351L21.1447 11.9321L21.2041 11.9796L21.3763 11.9743L21.6834 11.91L22.1586 11.7767L22.8521 11.5584L23.8404 11.23L25.243 10.7523L24.027 11.3621L23.063 11.8441L22.3941 12.1909L21.9454 12.4407L21.668 12.6184L21.5302 12.7411L21.5111 12.8203L21.5973 12.8646L21.7804 12.88L22.055 12.8713L22.4175 12.8426L22.8643 12.7976L23.3911 12.7403L23.9914 12.6747L24.6553 12.6057L25.3687 12.5385L26.1124 12.479L26.8627 12.4332L27.5914 12.4069L28.2685 12.4055L28.864 12.4327L29.3511 12.4906L29.7092 12.5793L29.9262 12.6966L30 12.8386L29.9379 12.9999L29.7557 13.1743L29.4754 13.3558L29.1225 13.5388L28.7234 13.7187L28.3034 13.8921L27.8852 14.0566L27.4877 14.2112L27.1265 14.3558L26.8133 14.4909L26.5568 14.6177L26.3632 14.7379L26.2365 14.8532L26.179 14.9658L26.1755 15.0014Z" fill="#080D1B"/>
</svg>
