<?xml version="1.0" encoding="UTF-8" standalone="no"?><svg width="52" height="30" viewBox="0 0 52 30" fill="none" xmlns="http://www.w3.org/2000/svg">
<path fill-rule="evenodd" clip-rule="evenodd" d="M0 10.9018L0.245138 10.5134L0.490276 10.1282L0.735414 9.74663L0.980553 9.36887L1.22569 8.99521L1.47083 8.62594L1.71597 8.26133L1.96111 7.90164L2.20624 7.54714L2.45138 7.19807L2.69652 6.85471L2.94166 6.5173L3.1868 6.18608L3.43193 5.8613L3.67707 5.5432L3.92221 5.232L4.16735 4.92794L4.41249 4.63123L4.65762 4.3421L4.90276 4.06075L5.1479 3.78739L5.39304 3.52223L5.63818 3.26544L5.88332 3.01723L6.12845 2.77777L6.37359 2.54724L6.61873 2.3258L6.86387 2.11362L7.10901 1.91085L7.35414 1.71764L7.59928 1.53414L7.84442 1.36047L8.08956 1.19676L8.3347 1.04314L8.57983 0.899704L8.82497 0.766572L9.07011 0.643837L9.31525 0.531588L9.56039 0.429906L9.80553 0.338867L10.0507 0.258536L10.2958 0.188973L10.5409 0.130228L10.7861 0.0823442L11.0312 0.0453565L11.2764 0.0192918L11.5215 0.00416932L11.7666 0L12.0118 0.00678692L12.2569 0.0245251L12.502 0.0532016L12.7472 0.0927955L12.9923 0.143278L13.2375 0.204612L13.4826 0.276753L13.7277 0.359647L13.9729 0.453236L14.218 0.557449L14.4632 0.672212L14.7083 0.79744L14.9534 0.933041L15.1986 1.07892L15.4437 1.23496L15.6888 1.40106L15.934 1.57709L16.1791 1.76293L16.4243 1.95843L16.6694 2.16346L16.9145 2.37787L17.1597 2.6015L17.4048 2.83418L17.6499 3.07574L17.8951 3.32602L18.1402 3.58483L18.3854 3.85197L18.6305 4.12725L18.8756 4.41048L19.1208 4.70144L19.3659 4.99992L19.6111 5.30571L19.8562 5.61858L20.1013 5.9383L20.3465 6.26464L20.5916 6.59736L20.8367 6.93622L21.0819 7.28097L21.327 7.63135L21.5722 7.98712L21.8173 8.34801L22.0624 8.71376L22.3076 9.0841L22.5527 9.45876L22.7978 9.83747L23.043 10.2199L23.2881 10.6059L23.5333 10.9951L23.7784 11.3872L24.0235 11.7819L24.2687 12.179L24.5138 12.5782L24.759 12.9791L25.0041 13.3815L25.2492 13.7851L25.4944 14.1896L25.7395 14.5946L25.9846 15L26.2298 15.4054L26.4749 15.8104L26.7201 16.2149L26.9652 16.6185L27.2103 17.0209L27.4555 17.4218L27.7006 17.821L27.9457 18.218L28.1909 18.6128L28.436 19.0049L28.6812 19.3941L28.9263 19.7801L29.1714 20.1625L29.4166 20.5412L29.6617 20.9159L29.9069 21.2862L30.152 21.652L30.3971 22.0129L30.6423 22.3686L30.8874 22.719L31.1325 23.0638L31.3777 23.4026L31.6228 23.7354L31.868 24.0617L32.1131 24.3814L32.3582 24.6943L32.6034 25.0001L32.8485 25.2986L33.0937 25.5895L33.3388 25.8727L33.5839 26.148L33.8291 26.4152L34.0742 26.674L34.3193 26.9243L34.5645 27.1658L34.8096 27.3985L35.0548 27.6221L35.2999 27.8365L35.545 28.0416L35.7902 28.2371L36.0353 28.4229L36.2804 28.5989L36.5256 28.765L36.7707 28.9211L37.0159 29.067L37.261 29.2026L37.5061 29.3278L37.7513 29.4425L37.9964 29.5468L38.2416 29.6404L38.4867 29.7232L38.7318 29.7954L38.977 29.8567L39.2221 29.9072L39.4672 29.9468L39.7124 29.9755L39.9575 29.9932L40.2027 30L40.4478 29.9958L40.6929 29.9807L40.9381 29.9546L41.1832 29.9177L41.4283 29.8698L41.6735 29.811L41.9186 29.7415L42.1638 29.6611L42.4089 29.5701L42.654 29.4684L42.8992 29.3562L43.1443 29.2334L43.3895 29.1003L43.6346 28.9569L43.8797 28.8032L44.1249 28.6395L44.37 28.4659L44.6151 28.2824L44.8603 28.0891L45.1054 27.8864L45.3506 27.6742L45.5957 27.4528L45.8408 27.2222L46.086 26.9828L46.3311 26.7346L46.5762 26.4778L46.8214 26.2126L47.0665 25.9392L47.3117 25.6579L47.5568 25.3688L47.8019 25.0721L48.0471 24.768L48.2922 24.4568L48.5374 24.1387L48.7825 23.8139L49.0276 23.4827L49.2728 23.1453L49.5179 22.8019L49.763 22.4529L50.0082 22.0984L50.2533 21.7387L50.4985 21.3741L50.7436 21.0048L50.9887 20.6311L51.2339 20.2534L51.479 19.8718L51.7242 19.4866" fill="#080D1B"/>
</svg>
